<?xml version="1.0" encoding="utf-8"?>
<svg version="1.1" id="svg2" width="5333.3335" height="5333.3335" viewBox="0 0 5333.3335 5333.3335" xmlns="http://www.w3.org/2000/svg">
  <defs id="defs6">
    <clipPath clipPathUnits="userSpaceOnUse" id="clipPath18">
      <path d="M 0,4000 H 4000 V 0 H 0 Z" id="path16"/>
    </clipPath>
  </defs>
  <g id="g10" transform="matrix(1.3333333,0,0,-1.3333333,0,5333.3333)">
    <g id="g12">
      <g id="g14" clip-path="url(#clipPath18)">
        <g id="g20" transform="translate(1069.4836,1106.7)">
          <path d="m 0,0 c -172.827,3.384 -345.664,4.828 -518.513,4.782 77.959,136.038 154.799,272.721 230.237,410.213 82.086,150.165 163.503,301.279 240.219,454.284 -58.916,-89.195 -116.148,-180.206 -172.548,-270.988 -131.667,-212.208 -259.208,-427.19 -384.228,-643.343 0,0 43.245,-0.074 43.245,-0.074 315.829,-0.395 632.043,3.456 947.68,16.216 58.523,2.408 116.997,5.104 175.496,8.727 -46.799,2.914 -93.598,5.189 -140.397,7.238 C 281.511,-6.816 139.673,-2.816 0,0" style="fill-opacity: 1; fill-rule: nonzero; stroke: none; fill: rgb(80, 81, 120);" id="path22"/>
        </g>
        <g id="g24" transform="translate(1789.5261,3320.1321)">
          <path d="m 0,0 c -8.198,-18.143 -16.237,-36.378 -23.756,-54.913 12.292,15.779 24.064,31.859 35.678,48.03 C 84.337,94.473 150.73,199.961 213.919,307.261 227.293,284.429 240.81,261.679 254.525,239.044 318.246,134.527 384.424,30.715 458.589,-66.812 389.33,96.907 303.035,253.227 213.935,406.834 137.052,274.367 63.373,139.51 0,0" style="fill-opacity: 1; fill-rule: nonzero; stroke: none; fill: rgb(80, 81, 120);" id="path26"/>
        </g>
        <g id="g28" transform="translate(3006.0132,1960.9609)">
          <path d="m 0,0 c -41.072,65.489 -82.252,130.851 -124.644,195.531 23.21,-46.043 46.975,-91.766 70.936,-137.375 161.178,-306.158 330.653,-608.185 503.67,-907.779 -289.802,-0.903 -579.751,-5.115 -869.39,-15.472 -69.645,-2.54 -141.096,-5.478 -210.585,-9.349 388.346,-19.776 777.505,-24.18 1166.275,-25.011 C 362.495,-596.851 184.826,-296.046 0,0" style="fill-opacity: 1; fill-rule: nonzero; stroke: none; fill: rgb(80, 81, 120);" id="path30"/>
        </g>
        <g id="g32" transform="translate(3536.5791,3397.4302)">
          <path d="m 0,0 c -4.318,-20.875 -7.85,-42.486 -11.265,-63.392 -11.107,-67.976 -22.591,-138.266 -63.418,-206.311 -53.463,-89.104 -140.208,-218.03 -189.918,-286.381 -21.201,-29.153 -35.34,-65.605 -50.314,-104.205 -19.761,-50.936 -40.193,-103.607 -79.049,-145.84 l -7.055,-7.668 14.679,-4.639 -2.692,-11.264 0.714,-0.238 -56.299,5.197 42.567,-16.259 -30.275,4.914 57.574,-36.223 c -18.685,-12.633 -80.33,-49.216 -167.373,-49.761 -14.653,-0.091 -25.698,-0.504 -32.826,-1.228 -5.966,-0.607 -14.982,-1.522 -15.422,-8.838 -0.28,-4.659 3.247,-7.279 7.815,-9.038 h -8.609 l 28.31,-19.966 -20.456,6.502 23.956,-33.302 -42.284,13.915 13.254,-25.882 -35.845,25.201 -27.37,-88.351 -24.229,27.692 -70.968,-48.076 0.951,-4.381 c 0.185,-0.846 18.226,-85.757 3.143,-185.927 -6.796,-45.127 -19.323,-86.786 -37.234,-123.819 -2.571,-5.317 -4.965,-10.024 -7.32,-14.39 -2.069,-3.834 -4.402,-7.936 -7.133,-12.542 l -0.814,-1.382 c -0.571,-0.972 -1.142,-1.944 -1.729,-2.901 -33.876,-55.297 -81.876,-98.633 -142.668,-128.802 l -2.818,-1.402 -0.699,-3.069 c -0.119,-0.527 -12.29,-53.48 -46.624,-112.94 -19.963,-34.571 -43.36,-64.335 -69.536,-88.464 -32.575,-30.028 -69.604,-51.382 -110.061,-63.47 -8.153,-2.437 -16.163,-4.582 -23.807,-6.377 -2.94,-0.691 -5.567,-1.276 -8.033,-1.793 -2.581,-0.538 -5.205,-1.047 -8.02,-1.555 -89.041,-16.062 -113.074,23.918 -140.903,70.215 -13.037,21.686 -26.516,44.11 -47.501,61.917 -1.434,1.216 -2.749,2.29 -4.019,3.286 l -0.823,0.637 c -1.653,1.287 -3.291,2.554 -4.91,3.782 -0.669,0.509 -1.33,1.002 -1.991,1.494 l -0.194,0.146 3.081,14.578 c 0.443,1.949 4.181,19.269 -0.991,27.088 -1.523,2.302 -3.692,3.764 -6.273,4.23 -2.642,0.478 -7.545,1.363 -31.856,-21.838 -1.621,0.942 -3.202,1.843 -4.718,2.688 0.988,6.271 1.906,16.875 -1.848,22.55 -1.523,2.302 -3.692,3.764 -6.273,4.229 -2.274,0.405 -6.062,1.092 -21.678,-12.52 -4.856,1.933 -9.78,3.696 -14.652,5.247 -1.383,6.903 -4.23,15.445 -10.012,18.274 -1.326,0.648 -2.74,0.977 -4.203,0.977 h -0.292 c -1.161,-0.033 -2.295,-0.345 -3.466,-0.951 -2.914,-1.507 -6.329,-4.991 -10.721,-10.943 -3.934,0.889 -6.958,1.634 -9.517,2.479 -2.296,4.168 -4.869,7.037 -7.649,8.531 -1.918,1.03 -3.936,1.412 -6.003,1.145 -0.802,-0.109 -1.553,-0.34 -2.296,-0.708 -0.164,-0.081 -0.325,-0.166 -0.485,-0.257 -7.556,6.325 -10.996,16.411 -11.827,34.52 -0.51,11.135 -0.55,31.676 -0.117,61.057 0.794,1.772 1.652,3.84 2.554,6.148 18.029,46.174 69.615,54.265 119.503,62.089 35.166,5.516 68.383,10.726 86.069,29.465 l 0.144,0.152 0.07,0.199 c 0.165,0.462 3.968,11.402 -2.211,18.203 -6.944,7.642 -23.855,13.028 -50.485,5.229 -3.872,-1.135 -7.867,-2.41 -12.094,-3.76 -26.189,-8.365 -55.871,-17.841 -71.815,1.429 -18.508,22.373 -13.326,81.993 -13.277,82.547 0.047,0.338 4.846,33.811 22.608,41.267 25.139,10.555 41.612,-3.34 47.524,-9.803 9.145,-9.997 11.949,-21.588 9.303,-26.593 -1.265,-2.392 -3.69,-3.347 -7.198,-2.844 -19.089,2.748 -31.921,-0.325 -38.129,-9.132 -11.554,-16.396 4.022,-46.326 4.69,-47.592 l 0.189,-0.358 0.386,-0.125 c 3.653,-1.19 89.884,-28.846 124.17,-3.832 9.107,6.645 13.696,16.488 13.639,29.256 l -0.027,0.221 c -0.097,0.424 -10.152,42.924 -38.126,85.267 -16.445,24.894 -35.777,44.877 -57.46,59.395 -27.124,18.162 -58.007,27.766 -91.794,28.545 h -0.132 l -28.339,-6.951 -28.273,12.24 -0.253,0.072 c -33.427,4.849 -65.54,0.521 -95.447,-12.864 -23.906,-10.698 -46.455,-27.173 -67.021,-48.966 -34.983,-37.069 -52.337,-77.271 -52.509,-77.673 l -0.064,-0.213 c -2.292,-12.562 0.498,-23.018 8.294,-31.079 29.38,-30.377 119.234,-17.459 123.045,-16.894 l 0.397,0.059 0.247,0.318 c 0.882,1.138 21.52,28.096 12.93,46.174 -4.597,9.674 -16.691,14.816 -35.947,15.283 -3.525,0.085 -5.736,1.413 -6.572,3.948 -1.76,5.337 2.981,16.267 13.712,24.621 6.97,5.426 25.662,16.464 48.652,1.842 16.19,-10.297 15.051,-44.072 15.041,-44.366 -0.052,-0.6 -5.394,-60.21 -27.556,-79.179 -19.09,-16.341 -46.672,-2.069 -71.008,10.525 -3.932,2.034 -7.646,3.956 -11.264,5.718 -24.873,12.115 -42.475,9.621 -50.656,3.246 -7.276,-5.67 -5.447,-17.081 -5.366,-17.563 l 0.035,-0.209 0.116,-0.177 c 14.797,-22.394 49.649,-35.094 86.548,-48.54 46.065,-16.786 93.698,-34.145 97.614,-71.708 1.454,-13.946 3.546,-16.757 4.993,-17.657 0.262,-0.163 0.534,-0.278 0.813,-0.341 l -1.22,-11.416 c -0.059,-0.575 -6.142,-57.709 -32.519,-74.846 -1.096,0.533 -2.162,0.809 -3.243,0.839 -2.143,0.065 -4.121,-0.552 -5.914,-1.822 -1.323,-0.939 -2.542,-2.244 -3.626,-3.884 -7.355,-1.874 -17.517,-4.916 -28.727,-8.601 -4.425,3.685 -8.142,6.377 -11.053,8.006 -4.484,2.513 -6.441,2.166 -7.613,1.958 -0.787,-0.142 -1.569,-0.395 -2.321,-0.752 -1.593,-0.752 -2.923,-1.922 -3.952,-3.477 -2.141,-3.238 -3.028,-8.391 -2.637,-15.325 -4.076,-1.489 -8.187,-3.022 -12.24,-4.564 l -0.71,0.688 c -11.959,11.527 -20.487,18.594 -26.071,21.609 -3.035,1.64 -5.328,2.201 -7.429,1.821 -0.784,-0.141 -1.565,-0.394 -2.322,-0.752 -1.593,-0.752 -2.923,-1.922 -3.951,-3.477 -5.172,-7.818 -1.446,-25.096 -1.007,-27.026 l 1.893,-8.951 c -1.45,-0.629 -2.898,-1.263 -4.347,-1.9 -2.154,-0.949 -4.306,-1.908 -6.454,-2.879 -39.513,-17.838 -89.604,-44.555 -103.846,-70.528 -21.117,-38.509 -78.51,-37.994 -90.55,-37.433 l -0.217,0.139 c -1.729,1.101 -4.61,2.979 -8.513,5.672 -2.703,1.868 -5.543,3.887 -8.442,6.001 -22.347,16.301 -55.352,43.53 -85.682,80.676 -28.174,34.505 -48.425,70.726 -60.192,107.654 -14.64,45.953 -16.115,93.229 -4.385,140.515 l 1.527,6.155 -6.08,1.798 c -0.744,0.221 -75.138,22.727 -144.273,80.189 -39.179,32.563 -69.356,70.134 -89.693,111.672 l -0.659,1.335 c -0.47,0.95 -0.94,1.9 -1.391,2.858 -0.96,2.039 -1.948,4.218 -3.111,6.86 -1.793,4.075 -3.512,8.226 -5.107,12.336 -18.334,47.262 -24.735,99.52 -19.024,155.335 8.941,11.216 17.952,23.164 26.785,35.516 2.009,2.809 4.003,5.635 5.987,8.471 2.01,2.876 4.009,5.768 5.995,8.67 5.999,8.768 11.991,17.805 18.217,27.479 -10.423,-40.613 -14.92,-80.217 -13.374,-117.815 3.326,-91.508 45.896,-166.82 119.861,-212.057 25.67,-15.977 54.953,-28.62 87.034,-37.577 l 0.639,1.892 c -32.71,13.025 -59.784,27.136 -82.772,43.138 -17.028,11.818 -32.009,24.7 -44.547,38.31 -1.5,1.527 -4.328,4.668 -5.595,6.173 -0.478,0.558 -1.034,1.192 -1.618,1.858 -1.311,1.493 -2.797,3.185 -3.81,4.512 -7.303,8.99 -14.119,18.678 -19.199,27.292 -38.249,62.559 -40.926,135.729 -36.437,186.093 2.397,26.435 6.87,53.193 13.294,79.532 1.911,3.087 3.812,6.183 5.704,9.286 1.168,1.918 2.335,3.838 3.497,5.761 1.157,1.916 2.309,3.837 3.461,5.759 22.034,36.781 42.988,74.64 63.251,111.253 l 0.06,0.108 c 20.11,36.334 39.105,70.654 58.855,103.595 25.154,41.952 41.054,85.519 56.43,127.651 7.708,21.117 15.023,41.159 23.296,60.653 -0.028,-1.076 -0.039,-2.147 -0.031,-3.209 l 0.028,-3.947 1.854,3.485 c 14.237,26.758 38.787,63.987 74.891,89.385 38.844,27.326 94.176,43.351 133.754,51.981 l 4.024,0.878 -3.978,1.065 c -36.579,9.798 -80.021,4.083 -119.189,-15.676 -1.436,-0.725 -2.872,-1.472 -4.305,-2.241 24.638,19.295 53.956,34.703 89.231,46.933 l 0.944,0.327 -5.645,16.287 -0.945,-0.327 c -140.411,-48.679 -174.272,-141.458 -210.121,-239.685 -15.101,-41.373 -30.715,-84.154 -55.022,-124.696 -19.918,-33.219 -38.997,-67.691 -59.214,-104.22 -21.771,-39.336 -44.282,-80.011 -68.073,-119.219 -1.166,-1.921 -2.332,-3.841 -3.503,-5.755 -1.178,-1.922 -2.36,-3.84 -3.544,-5.755 -6.04,-9.769 -12.051,-19.239 -17.864,-28.146 -1.99,-3.049 -3.99,-6.085 -6.003,-9.107 -1.986,-2.983 -3.984,-5.953 -5.994,-8.908 -29.184,-42.921 -57.617,-78.037 -86.926,-107.355 -42.835,-42.847 -99.155,-60.941 -146.977,-47.223 -40.82,11.706 -69.613,45.524 -81.076,95.225 -6.302,27.325 -2.686,56.435 0.81,84.586 1.205,9.697 2.452,19.723 3.284,29.611 5.158,61.233 -1.725,123.31 -20.457,184.506 -3.753,12.259 -8.498,24.093 -13.086,35.537 -1.556,3.882 -3.165,7.895 -4.678,11.789 -19.194,69.669 -29.174,126.939 -15.503,179.952 16.332,63.329 66.284,119.592 167.027,188.13 85.149,57.931 157.895,70.836 234.918,84.5 89.369,15.854 181.777,32.246 304.089,117.814 0.332,0.094 3.408,0.73 13.927,-4.54 9.34,-4.677 21.235,-12.218 35.009,-20.949 39.599,-25.102 93.832,-59.479 143.962,-60.706 l 1.169,-0.029 1.11,0.374 c 61.657,20.783 203.363,26.679 361.013,15.021 161.9,-11.972 291.332,-38.647 337.784,-69.615 l 1.739,-1.161 2.094,0.049 c 1.372,0.031 34.024,0.963 71.103,16.759 34.441,14.673 79.119,45.441 96.348,108.62 l 1.179,3.27 c 0.854,-2.262 1.959,-4.184 3.301,-5.738 2.482,-2.872 7.004,-6.088 14.499,-5.087 24.681,3.29 315.806,101.035 397.598,173.737 79.289,70.48 144.917,92.04 145.568,92.248 l 1.202,0.382 0.977,0.796 c 0.808,0.66 81.239,66.109 110.505,80.741 7.566,3.783 16.724,11.221 28.329,20.646 37.184,30.201 93.378,75.845 159.683,51.532 C 5.01,223.851 18.021,87.105 0,0 m -1717.922,-1725.342 c 19.232,-3.456 48.256,-1.564 73.863,0.109 10.847,0.708 21.091,1.377 29.652,1.574 2.155,0.051 4.056,0.07 5.813,0.059 10.261,-0.067 23.755,-0.687 37.992,-1.746 11.379,-0.847 22.598,-1.932 32.442,-3.139 13.244,-1.624 23.799,-3.447 30.524,-5.27 l 1.005,-0.273 c 3.118,-0.847 6.999,-1.899 11.436,-2.989 4.481,-1.103 8.679,-2.033 12.837,-2.847 8.978,-1.757 17.487,-2.876 25.29,-3.326 13.56,-0.784 25.463,0.426 35.377,3.589 9.853,3.144 17.914,8.272 23.98,15.253 l 36.251,-48.932 c 16.487,-27.425 32.06,-53.329 60.939,-68.215 15.696,-8.091 33.613,-12.024 54.775,-12.024 7.509,0 15.573,0.519 24.008,1.546 -7.908,-9.124 -16.708,-17.889 -26.192,-26.082 h -10e-4 c -31.427,-27.153 -70.868,-48.751 -117.225,-64.194 -58.316,-19.424 -127.73,-29.111 -206.303,-28.748 -79.271,0.344 -148.5,12.394 -205.766,35.814 -47.045,19.241 -86.368,46.263 -116.877,80.314 -16.032,17.895 -29.627,37.724 -40.427,58.962 h 0.263 c 22.863,0 73.7,4.728 95.506,44.492 8.525,15.544 35.344,34.707 77.574,55.433 5.784,-7.996 20.643,-25.292 43.264,-29.36 m 261.594,31.14 c 2.989,3.087 5.923,6.067 8.716,8.855 l 0.561,0.556 c 1.441,1.435 2.821,2.792 4.142,4.079 1.465,1.427 2.852,2.76 4.177,4.016 17.452,16.561 22.688,18.512 23.629,18.74 0.084,-0.049 0.197,-0.153 0.35,-0.384 2.005,-3.03 1.429,-12.932 -0.258,-20.383 l -7.549,-35.701 c -0.074,-0.353 -0.161,-0.684 -0.246,-1.015 l -0.201,-0.798 c -1.448,-5.431 -3.852,-8.935 -7.35,-10.713 -5.003,-2.543 -12.525,-1.797 -22.993,2.279 -2.999,1.168 -5.838,2.443 -8.118,3.466 -0.634,0.287 -1.226,0.551 -1.797,0.803 l -0.589,0.263 c -0.768,0.337 -1.478,0.638 -2.127,0.895 -0.627,0.25 -1.149,0.563 -1.596,0.958 l -2.74,2.421 -2.871,-2.263 c -0.111,-0.088 -0.225,-0.167 -0.338,-0.247 l -0.145,-0.102 c -0.399,-0.279 -0.737,-0.494 -1.063,-0.673 -2.445,-1.344 -5.577,-1.873 -9.313,-1.567 -3.575,0.29 -7.682,1.311 -12.557,3.124 -3.53,1.31 -6.872,2.812 -9.558,4.02 l -0.171,0.076 c -1.296,0.58 -2.466,1.106 -3.484,1.533 l -1.009,0.422 -1.09,-0.1 c -1.813,-0.17 -3.835,-0.189 -6.179,-0.058 -1.323,0.075 -2.593,0.183 -3.774,0.32 -3.531,0.408 -6.947,1.059 -9.211,1.513 l -1.206,0.242 -1.156,-0.421 c -3.8,-1.39 -8.932,-1.941 -15.693,-1.69 -1.859,0.071 -3.803,0.195 -5.945,0.38 -1.688,0.146 -3.289,0.308 -4.745,0.456 l -0.13,0.013 c -1.885,0.191 -3.514,0.356 -4.883,0.437 -1.677,0.102 -3.048,0.704 -4.189,1.842 l -1.315,1.311 -1.852,-0.036 c -1.486,-0.025 -3.158,-0.052 -4.934,-0.054 -0.408,0 -0.823,0 -1.244,0.01 -7.013,0.053 -12.195,0.631 -16.307,1.818 l -1.022,0.295 -1.043,-0.208 c -4.379,-0.868 -8.101,-1.411 -11.378,-1.658 -3.058,-0.23 -5.787,-0.205 -8.108,0.076 -3.902,0.471 -6.856,1.67 -8.782,3.563 l -2.117,2.083 -2.719,-1.198 c -0.997,-0.439 -2.026,-0.879 -3.068,-1.311 -7.548,-3.133 -18.403,-6.881 -25.475,-3.258 -2.418,1.239 -4.284,3.268 -5.703,6.205 -0.624,1.29 -1.177,2.844 -1.643,4.618 -0.063,0.239 -0.122,0.482 -0.181,0.728 l -0.093,0.368 c -0.042,0.159 -0.084,0.317 -0.12,0.486 l -7.586,35.866 -0.079,0.366 c -0.213,0.977 -0.412,2.032 -0.592,3.134 -0.127,0.779 -0.243,1.579 -0.347,2.396 -0.254,1.998 -0.412,3.907 -0.47,5.677 -0.138,4.22 0.304,7.327 1.245,8.749 0.152,0.23 0.265,0.334 0.348,0.383 0.591,-0.145 2.908,-0.98 8.902,-5.726 1.513,-1.198 3.201,-2.603 5.018,-4.174 0.907,-0.783 1.867,-1.628 2.885,-2.539 0.623,-0.558 1.269,-1.143 1.935,-1.75 5.993,-5.467 13.03,-12.344 20.917,-20.439 l 6.673,-6.85 2.187,25.327 c 0.262,3.675 0.964,7.844 1.928,11.438 0.665,2.48 1.438,4.614 2.236,6.169 1.117,2.175 1.976,2.686 2.414,2.789 0.225,-0.121 0.708,-0.427 1.499,-1.152 1.076,-0.984 2.365,-2.41 3.832,-4.235 3.626,-4.513 8.136,-11.215 13.405,-19.921 l 4.714,-7.791 5.296,14.423 c 3.738,10.622 9.6,18.82 12.213,18.953 0.81,-0.752 4.482,-5.156 11.057,-27.232 l 3.402,-11.424 4.799,10.912 c 2.509,5.706 4.839,10.538 6.922,14.363 0.49,0.9 0.951,1.719 1.383,2.455 1.091,1.864 2.095,3.398 2.983,4.558 0.962,1.256 1.546,1.764 1.806,1.954 1.023,-0.126 2.835,-1.772 5.009,-6.076 1.012,-2.006 2.011,-4.435 2.887,-7.025 0.761,-2.249 1.396,-4.497 1.89,-6.693 l 3.236,-13.485 5.521,9.038 c 1.648,2.698 3.239,5.224 4.729,7.507 1.15,1.761 2.279,3.44 3.359,4.991 1.279,1.834 2.487,3.486 3.591,4.91 3.886,5.012 5.683,6.213 6.189,6.478 1.274,-0.273 3.19,-3.186 4.776,-9.3 0.496,-1.914 0.913,-3.969 1.238,-6.108 0.259,-1.718 0.45,-3.414 0.567,-5.058 l 2.076,-24.011 0.215,-2.42 6.643,6.65 c 4.206,4.211 8.16,8.048 11.752,11.406 1.633,1.53 3.157,2.926 4.57,4.196 1.658,1.489 3.229,2.861 4.665,4.078 8.701,7.371 11.794,8.514 12.497,8.689 0.084,-0.05 0.197,-0.154 0.349,-0.383 1.376,-2.08 1.657,-7.723 0.735,-14.729 -0.26,-1.977 -0.601,-3.927 -1.01,-5.734 l -7.176,-33.942 10.57,10.914 z m -227.593,15.801 c 2.572,-2.701 5.148,-5.444 7.655,-8.153 l 1.953,-2.111 -0.577,-6.2 -0.023,-0.158 c -0.018,-0.159 -0.04,-0.314 -0.065,-0.466 -0.344,-2.072 -1.276,-3.269 -3.114,-4.001 -0.316,-0.125 -0.647,-0.26 -0.991,-0.406 -1.035,-0.437 -2.197,-0.959 -3.521,-1.554 -8.422,-3.782 -22.514,-10.114 -31.113,-5.747 -3.882,1.974 -6.433,6.072 -7.798,12.528 l -7.564,35.763 c -1.682,7.405 -2.253,17.279 -0.242,20.319 0.168,0.254 0.286,0.353 0.372,0.397 2.306,-0.341 9.997,-5.747 24.941,-20.018 1.433,-1.369 2.905,-2.792 4.412,-4.269 1.427,-1.397 2.884,-2.838 4.368,-4.324 l 0.707,0.707 -0.576,-0.839 c 3.607,-3.61 7.368,-7.47 11.176,-11.468 m 851.889,26.714 -1.531,-7.14 20.65,-2.374 -24.265,-5.524 28.723,-34.415 -34.78,4.065 -0.669,-6.709 c -0.094,-0.942 -2.139,-22.483 5.798,-39.728 l -28.022,6.954 7.754,-4.332 21.112,-48.956 c -8.355,4.505 -14.811,7.009 -19.217,7.45 -4.45,0.434 -8.347,-0.974 -10.963,-3.969 -4.143,-4.747 -3.745,-11.851 -3.094,-15.818 -11.628,-38.505 -23.245,-74.624 -34.48,-109.554 -30.766,-95.668 -57.348,-178.324 -68.598,-261.407 -88.509,-41.286 -181.639,-73.1 -276.828,-94.568 -35.458,-7.997 -71.856,-14.671 -108.181,-19.839 -6.929,92.607 -84.474,165.844 -178.823,165.844 -95.813,0 -174.299,-75.527 -179.095,-170.17 -66.668,7.843 -133.095,20.64 -197.438,38.037 -112.233,30.342 -220.428,75.046 -321.605,132.879 -46.371,201.521 -67.194,595.683 -67.399,599.644 l -0.325,6.285 h -66.561 l 43.084,40.483 -54.132,-9.219 40.716,20.172 -9.164,75.285 -15.337,-6.229 18.406,19.987 -14.405,0.511 c -25.899,0.92 -52.307,1.923 -72.387,2.746 27.959,6.796 59.678,13.782 71.118,15.07 l 0.91,-0.118 c 0.341,-0.04 0.681,-0.074 1.109,-0.112 0.35,-0.026 0.699,-0.043 1.034,-0.05 l 0.125,-0.01 c 0.095,-0.01 0.189,-0.011 0.281,-0.011 2.206,0 3.892,0.556 5.177,1.718 0.289,0.264 0.529,0.523 0.728,0.784 0.115,0.148 0.226,0.303 0.356,0.507 0.067,0.106 0.134,0.212 0.192,0.319 0.194,0.344 0.35,0.674 0.478,1.007 0.279,0.726 0.427,1.487 0.441,2.261 0.01,0.284 -0.01,0.567 -0.039,0.847 -0.221,2.007 -1.338,3.818 -3.065,4.969 -0.267,0.177 -0.539,0.333 -0.82,0.472 -0.072,0.035 -0.145,0.065 -0.279,0.12 -0.193,0.086 -0.387,0.171 -0.583,0.239 -0.087,0.031 -0.179,0.056 -0.27,0.081 l -0.123,0.035 c -0.169,0.05 -0.339,0.099 -0.518,0.139 -0.106,0.024 -0.215,0.042 -0.398,0.073 -0.18,0.032 -0.362,0.063 -0.553,0.086 -0.119,0.014 -0.241,0.024 -0.435,0.04 -0.184,0.015 -0.372,0.03 -0.562,0.036 -0.151,0.01 -0.308,0.01 -0.464,0.011 -0.197,0 -0.395,0 -0.598,0 -0.158,0 -0.322,-0.01 -0.488,-0.015 -0.214,-0.01 -0.434,-0.02 -0.655,-0.035 l -0.657,-0.044 c -11.019,1.673 -37.595,7.14 -60.681,12.101 21.457,3.054 48.801,6.644 66.755,8.921 l 5.558,0.705 2.172,52.873 c 20.493,-35.144 48.126,-67.291 82.178,-95.594 60.681,-50.435 123.751,-74.272 143.006,-80.783 -10.768,-47.751 -8.713,-95.483 6.109,-141.892 12.313,-38.553 33.411,-76.266 62.71,-112.09 42.029,-51.391 88.661,-83.854 102.354,-92.824 12.028,-26.184 28.012,-50.494 47.51,-72.255 31.859,-35.56 72.815,-63.734 121.731,-83.74 58.846,-24.067 129.745,-36.448 210.728,-36.799 1.362,-0.01 2.709,-0.01 4.067,-0.01 78.38,0 147.85,9.906 206.483,29.436 48.009,15.993 88.955,38.446 121.703,66.739 14.078,12.164 26.617,25.383 37.274,39.297 11.343,2.24 23.6,5.319 36.445,9.157 42.467,12.691 81.292,35.086 115.397,66.561 27.182,25.086 51.425,55.952 72.054,91.742 30.438,52.799 43.667,99.493 47.154,113.256 54.461,27.548 99.046,65.563 132.58,113.034 -9.114,-68.775 -20.438,-134.911 -33.673,-196.647 m -538.072,-649.82 c -0.246,-92.067 -75.217,-166.894 -167.342,-166.894 -90.772,0 -164.895,72.647 -167.285,162.853 -0.04,1.493 -0.062,2.991 -0.062,4.494 0,2.286 0.059,4.558 0.15,6.822 3.593,89.124 77.208,160.525 167.197,160.525 88.627,0 161.37,-69.256 166.986,-156.489 0.231,-3.591 0.361,-7.209 0.361,-10.858 0,-0.152 -0.01,-0.302 -0.01,-0.453 M 11.429,151.936 c -14.327,59.998 -44.484,99.992 -87.205,115.657 -73.379,26.902 -135.493,-23.545 -172.61,-53.69 -10.533,-8.555 -19.631,-15.944 -25.897,-19.077 -29.158,-14.58 -102.963,-74.212 -112.005,-81.552 -7.895,-2.698 -71.932,-25.946 -149.125,-94.565 -42.616,-37.877 -141.603,-81.209 -217.138,-110.89 -87.47,-34.37 -163.379,-58.278 -173.403,-59.614 -1.97,-0.26 -2.436,0.286 -2.716,0.612 -4.524,5.232 -1.504,27.07 2.416,40.823 l 0.265,0.929 -12.548,4.046 -17.207,-47.753 -0.148,-0.472 c -12.665,-46.659 -42.436,-80.319 -88.488,-100.046 -29.537,-12.654 -56.513,-15.245 -64.591,-15.751 -59.166,37.761 -215.541,61.221 -342.301,70.595 -158.088,11.691 -301.346,5.683 -365.087,-15.3 -46.178,1.648 -98.114,34.57 -136.062,58.625 -32.576,20.648 -52.238,33.112 -63.543,25.2 -119.943,-83.934 -210.911,-100.071 -298.884,-115.678 -78.455,-13.918 -152.559,-27.064 -240.057,-86.592 -103.638,-70.507 -155.199,-129.059 -172.407,-195.781 -14.844,-57.558 -3.271,-120.745 18.668,-197.897 2.911,-10.846 6.391,-22.837 10.952,-37.737 18.087,-59.086 24.737,-118.978 19.763,-178.012 -0.799,-9.494 -2.021,-19.334 -3.214,-28.942 -3.68,-29.639 -7.486,-60.288 -0.499,-90.576 12.934,-56.082 46.005,-94.41 93.121,-107.923 11.952,-3.427 24.535,-5.164 37.398,-5.163 44.34,10e-4 90.456,20.692 126.523,56.769 11.291,11.296 22.629,23.622 33.73,36.672 -3.216,-58.652 6.852,-113.245 29.941,-162.308 0.158,-0.335 0.323,-0.668 0.488,-1 0.096,-0.193 0.192,-0.386 0.286,-0.58 l -2.645,-64.379 c -9.379,-1.205 -26.872,-3.476 -44.328,-5.86 -14.502,-1.98 -26.082,-3.645 -34.42,-4.946 -5.005,-0.781 -8.9,-1.442 -11.576,-1.964 -4.292,-0.835 -9.156,-1.782 -9.673,-7.052 -0.307,-3.139 1.602,-6.04 4.643,-7.053 2.521,-0.84 27.089,-6.25 50.221,-11.082 l -8.955,-0.87 15.053,-2.19 c -10.591,-2.348 -20.23,-4.615 -25.453,-5.86 -12.81,-3.05 -24.886,-6.069 -34.003,-8.5 -4.672,-1.247 -8.355,-2.282 -10.947,-3.079 -4.134,-1.273 -8.408,-2.589 -8.683,-7.523 -0.185,-3.324 2.076,-6.243 5.375,-6.94 3.981,-0.842 63.342,-3.109 99.974,-4.44 l -38.974,-42.318 54.115,21.976 5.936,-48.768 -113.287,-56.126 99.871,17.009 -35.427,-33.289 h 87.46 c 2.554,-45.686 23.987,-409.787 68.033,-598.494 l 0.656,-2.804 2.498,-1.437 c 102.883,-59.095 212.986,-104.723 327.252,-135.615 65.372,-17.674 132.854,-30.644 200.57,-38.55 l 0.146,-0.017 c 2.217,-96.979 81.774,-175.195 179.277,-175.195 98.892,0 179.347,80.455 179.347,179.347 0,0.062 0,0.124 0,0.186 l 0.126,0.018 c 37.092,5.244 74.252,12.042 110.449,20.205 97.308,21.946 192.463,54.594 282.823,97.035 l 3.287,1.542 0.468,3.603 c 10.804,83.104 37.566,166.317 68.553,262.669 11.408,35.469 23.204,72.146 35.028,111.365 l 0.503,1.709 -0.399,1.719 c -0.459,1.967 -0.482,4.238 -0.295,5.386 5.971,-0.799 21.581,-9.888 30.906,-16.189 l 18.768,-12.685 -28.862,66.925 c 4.61,-1.115 9.859,-2.393 14.699,-3.592 2.817,-1.459 5.813,-2.512 8.906,-3.132 2.806,-0.56 4.833,-0.945 6.199,-1.175 1.126,-0.193 2.185,-0.283 3.088,-0.209 l 0.006,10e-4 30.505,-7.575 -24.034,13.44 c 0.201,1.926 -0.19,5.756 -5.914,7.478 -0.854,0.256 -2.09,0.599 -3.613,1.004 -2.436,0.648 -5.887,1.527 -10.259,2.616 -12.101,7.439 -13.719,27.435 -13.777,36.851 l 53.961,-6.306 -36.153,43.318 78.862,17.952 -83.282,9.57 c 14.412,68.317 26.48,141.741 35.876,218.281 25.983,44.522 43.524,96.225 52.133,153.672 13.498,90.056 0.59,169.277 -2.481,185.927 l 53.93,36.534 32.138,-36.729 28.998,93.615 64.812,-45.565 -22.985,44.884 50.322,-16.561 -24.36,33.865 64.096,-20.375 -64.294,45.345 h 42.445 l 0.828,13.086 -0.931,0.118 c -13.503,1.716 -27.745,3.811 -39.919,5.857 1.59,0.019 3.224,0.034 4.902,0.044 58.368,0.366 104.984,16.104 133.813,29.244 31.376,14.3 48.789,28.436 49.515,29.031 l 7.122,5.835 -18.411,11.583 93.727,-15.216 -73.383,28.03 74.555,-6.882 -38.484,12.828 2.873,12.442 -66.656,21.065 c 36.13,42.566 55.797,93.259 74.819,142.292 14.649,37.763 28.485,73.432 48.674,101.193 49.88,68.586 136.919,197.953 190.562,287.358 42.136,70.228 53.828,141.792 65.135,211 3.547,21.711 6.899,42.219 11.164,62.838 10.281,49.692 9.7,107.495 -1.554,154.622" style="fill-opacity: 1; fill-rule: nonzero; stroke: none; fill: rgb(80, 81, 120);" id="path34"/>
        </g>
        <g id="g36" transform="translate(2584.0852,2396.8267)">
          <path d="m 0,0 c 0,-11.125 -9.019,-20.145 -20.145,-20.145 -11.126,0 -20.145,9.02 -20.145,20.145 0,11.126 9.019,20.145 20.145,20.145 C -9.019,20.145 0,11.126 0,0 m -47.963,-2.101 c -1.206,-1.561 -2.572,-2.993 -4.073,-4.272 -1.443,-1.23 -3.009,-2.319 -4.68,-3.243 3.413,-6.821 5.346,-14.506 5.346,-22.637 0,-27.993 -22.775,-50.768 -50.768,-50.768 -27.993,0 -50.768,22.775 -50.768,50.768 0,27.993 22.775,50.767 50.768,50.767 1.177,0 2.34,-0.055 3.497,-0.134 0.211,1.915 0.613,3.773 1.186,5.554 0.611,1.903 1.421,3.716 2.4,5.421 4.898,8.524 14.087,14.27 24.624,14.27 15.678,0 28.387,-12.709 28.387,-28.387 0,-6.531 -2.212,-12.542 -5.919,-17.339 m -50.05,83.176 c -53.272,0 -97.699,-37.844 -107.876,-88.113 -1.436,-7.096 -2.196,-14.438 -2.196,-21.958 0,-26.89 9.655,-51.517 25.671,-70.634 28.942,-9.983 71.694,-20.822 107.16,-13.861 32.283,6.336 60.93,27.809 80.472,46.242 4.417,11.916 6.84,24.8 6.84,38.253 0,23.389 -7.318,45.058 -19.756,62.888 -19.891,28.513 -52.914,47.183 -90.315,47.183" style="fill-opacity: 1; fill-rule: nonzero; stroke: none; fill: rgb(80, 81, 120);" id="path38"/>
        </g>
        <g id="g40" transform="translate(1484.0543,2449.627)">
          <path d="m 0,0 c 0,1.595 0.084,3.17 0.223,4.729 0.171,1.918 0.438,3.808 0.81,5.661 0.389,1.936 0.887,3.832 1.481,5.685 6.815,21.239 26.747,36.658 50.219,36.658 1.274,0 2.533,-0.061 3.785,-0.15 0.347,1.915 0.884,3.762 1.594,5.522 0.762,1.888 1.716,3.678 2.847,5.339 5.108,7.504 13.718,12.434 23.481,12.434 15.678,0 28.387,-12.709 28.387,-28.386 0,-5.756 -1.718,-11.108 -4.663,-15.582 -1.109,-1.685 -2.391,-3.246 -3.824,-4.655 -1.37,-1.347 -2.877,-2.553 -4.497,-3.602 0.661,-1.311 1.268,-2.653 1.819,-4.023 0.729,-1.808 1.359,-3.664 1.885,-5.564 0.506,-1.826 0.921,-3.689 1.229,-5.588 0.449,-2.762 0.691,-5.592 0.691,-8.478 0,-29.077 -23.656,-52.733 -52.734,-52.733 C 23.656,-52.733 0,-29.077 0,0 m 134.726,52.398 c 11.126,0 20.145,-9.019 20.145,-20.145 0,-3.99 -1.175,-7.699 -3.177,-10.829 -1.474,-2.305 -3.391,-4.297 -5.651,-5.835 -3.226,-2.195 -7.12,-3.48 -11.317,-3.48 -3.671,0 -7.103,0.997 -10.067,2.714 -2.377,1.376 -4.439,3.222 -6.074,5.414 -2.503,3.357 -4.004,7.507 -4.004,12.016 0,11.126 9.02,20.145 20.145,20.145 M 79.617,-81.238 c 32.283,6.337 60.93,27.809 80.472,46.242 4.418,11.916 6.84,24.801 6.84,38.254 0,2.501 -0.101,4.979 -0.266,7.438 -0.126,1.884 -0.284,3.758 -0.504,5.615 -0.223,1.884 -0.511,3.748 -0.828,5.602 -2.78,16.232 -9.103,31.252 -18.158,44.233 -19.891,28.512 -52.914,47.183 -90.315,47.183 -53.271,0 -97.698,-37.845 -107.876,-88.113 -0.737,-3.645 -1.293,-7.355 -1.663,-11.119 -0.183,-1.869 -0.319,-3.752 -0.407,-5.647 -0.081,-1.721 -0.126,-3.451 -0.126,-5.192 0,-0.149 0.01,-0.296 0.01,-0.444 0.106,-26.716 9.734,-51.179 25.661,-70.19 28.942,-9.984 71.694,-20.822 107.16,-13.862" style="fill-opacity: 1; fill-rule: nonzero; stroke: none; fill: rgb(80, 81, 120);" id="path42"/>
        </g>
        <g id="g44" transform="translate(3350.6221,3394.6934)">
          <path d="m 0,0 c -7.479,0.652 -15.144,-5.818 -22.816,-19.248 -18.301,-32.026 -120.916,-102.285 -203.37,-158.739 -26.241,-17.968 -51.027,-34.938 -71.134,-49.301 -83.407,-59.576 -347.237,-111.047 -349.937,-111.569 -40.023,-9.666 -64.811,-28.956 -73.676,-57.335 -5.986,-19.165 -4.726,-42.618 3.746,-69.705 6.75,-21.589 18.077,-45.539 33.662,-71.183 25.946,-42.693 55.314,-76.065 56.836,-77.783 l 25.046,-40.679 11.496,22.631 c 1.291,-7.384 5.009,-24.672 11.719,-26.161 2.585,-0.571 5.183,1.119 7.735,5.027 8.292,12.697 9.61,60.039 9.578,89.901 l 13.035,-138.172 28.54,47.964 c 11.353,3.212 94.438,27.065 97.419,38.056 0.273,1.006 0.023,1.948 -0.724,2.725 -8.467,8.8 -17.092,27.706 -17.869,29.428 l -8.725,61.085 c 6.865,-4.427 31.962,-20.025 63.25,-32.476 33.931,-13.503 82.303,-25.967 120.064,-8.661 30.276,13.877 87.335,109.667 169.59,284.711 61.205,130.248 114.238,258.082 114.766,259.358 l 0.148,0.355 -0.13,0.364 C 17.981,-18.657 11.554,-1.02 0,0" style="fill-opacity: 1; fill-rule: nonzero; stroke: none; fill: rgb(80, 81, 120);" id="path46"/>
        </g>
        <g id="g48" transform="translate(2141.3564,2637.272)">
          <path d="m 0,0 c 3.604,9.001 8.955,17.22 15.474,23.765 27.004,26.97 68.362,29.524 90.588,28.65 l 2.773,-0.181 0.494,2.755 c 1.155,6.468 2.654,14.811 4.297,23.955 2.739,15.251 5.879,32.727 8.492,47.435 3.149,-12.273 6.819,-26.523 10.246,-39.83 3.187,-12.372 6.163,-23.929 8.315,-32.323 l 7.202,-27.955 0.526,5.742 c 1.06,11.577 2.266,24.7 3.555,38.723 3.625,39.435 8.096,88.076 11.672,128.016 11.019,-41.308 25.051,-93.576 34.685,-129.204 l 0.858,-3.171 1.054,3.112 c 1.94,5.72 6.85,20.242 11.869,35.081 -0.007,-15.353 -0.012,-30.454 -0.012,-37.529 v -3.872 l 53.867,97.324 c 0.07,-28.027 0.209,-61.482 0.316,-85.09 l 0.011,-2.587 30.385,33.711 0.093,-21.831 0.645,-0.242 c 1.738,-0.652 2.618,-0.983 3.112,-1.127 l -0.014,-0.035 C 375.531,53.407 437.722,15.813 485.341,-28.44 c 33.696,-31.73 55.601,-65.425 65.109,-100.149 0.487,-1.775 0.959,-3.641 1.406,-5.546 0.431,-1.833 0.833,-3.701 1.197,-5.553 5.329,-27.148 4.897,-55.645 -4.977,-83.317 10.958,27.962 14.268,56.147 9.836,83.772 -0.309,1.926 -0.648,3.821 -1.009,5.632 -0.392,1.983 -0.791,3.823 -1.217,5.625 -11.102,46.901 -44.156,92.357 -98.244,135.105 -54.616,43.165 -116.581,71.993 -149.063,85.476 0.02,4.578 0.046,11.074 0.072,17.685 0.038,9.906 0.077,20.071 0.105,24.429 l 0.015,2.594 -30.003,-32.724 c 0.127,30.417 0.237,71.813 0.27,101.786 l 0.004,3.858 -53.559,-96.125 -0.023,70.779 -1.947,-5.802 c -3.251,-9.694 -8.75,-26.104 -14.32,-42.731 l -8.458,-25.244 c -9.927,36.463 -23.585,86.229 -41.703,151.953 l -1.501,5.447 -0.46,-5.631 c -3.147,-38.599 -7.77,-97.011 -14.121,-178.437 -5.985,21.707 -13.11,47.538 -17.363,62.739 l -5.157,18.601 -2.962,-19.006 c -2.285,-14.376 -5.948,-38.175 -9.18,-59.172 -1.672,-10.861 -3.241,-21.056 -4.471,-28.981 -0.271,0.001 -0.542,0.002 -0.812,0.002 -30.198,0 -56.781,-7.383 -76.959,-21.394 C 15.477,29.942 6.968,20.027 1.237,8.557 L 1.208,8.494 C 1.023,8.049 0.589,7.08 0.13,6.056 -0.482,4.691 -1.115,3.28 -1.338,2.702 -1.547,2.06 -1.901,1.063 -2.268,0.035 -2.694,-1.163 -3.136,-2.403 -3.39,-3.198 l 1.885,-0.666 z" style="fill-opacity: 1; fill-rule: nonzero; stroke: none; fill: rgb(80, 81, 120);" id="path50"/>
        </g>
        <g id="g52" transform="translate(2337.833,2279.6394)">
          <path d="m 0,0 c -56.577,30.514 -117.726,52.718 -180.72,65.55 -4.667,0.913 -9.275,1.768 -14.031,2.522 -0.598,0.439 -1.219,0.751 -1.74,0.939 -7.451,2.131 -15.117,2.555 -22.7,3.599 -54.551,6.032 -109.28,9.915 -163.98,14.052 -27.565,1.733 -67.2,6.101 -94.432,3.943 -112.116,-5.151 -212.923,-69.443 -284.821,-152.602 -30.852,-35.507 -58.272,-74.241 -79.68,-116.165 76.703,131.454 206.174,251.303 365.023,258.355 26.74,1.683 66.159,-2.653 93.086,-4.459 46.788,-3.64 93.575,-7.364 140.286,-11.693 13.482,-1.352 27.042,-2.527 40.389,-4.649 1.063,-0.174 2.116,-0.41 2.943,-0.624 0.007,-10e-4 -0.011,0.006 -0.105,0.045 -0.112,0.051 0.85,-1.067 0.85,-1.066 147.404,-25.218 298.059,-102.028 381.925,-229.164 11.179,-16.791 21.257,-34.585 29.943,-52.781 5.121,-10.398 9.552,-21.118 13.871,-31.888 -14.972,43.919 -37.063,85.641 -65.654,122.543 C 117.702,-77.865 61.557,-33.323 0,0" style="fill-opacity: 1; fill-rule: nonzero; stroke: none; fill: rgb(80, 81, 120);" id="path54"/>
        </g>
        <g id="g56" transform="translate(2235.2542,2212.0313)">
          <path d="m 0,0 c -70.516,40.27 -149.965,63.686 -230.367,73.326 -9.671,1.392 -22.279,2.229 -32.095,3.143 -5.19,0.268 -12.706,0.483 -17.93,0.749 -88.379,2.578 -177.663,-22.493 -250.265,-73.255 -27.179,-18.992 -52.718,-40.997 -73.369,-67.034 55.92,60.279 131.99,101.316 211.843,119.316 6.324,1.377 14.273,3.056 20.656,4.055 4.614,0.771 9.203,1.687 13.857,2.192 l 13.917,1.786 13.982,1.172 c 7.902,0.759 16.579,0.779 24.517,1.191 9.515,-0.015 22.09,0.048 31.557,-0.563 2.477,-0.124 8.044,-0.351 10.513,-0.491 2.074,-0.152 15.207,-1.434 17.474,-1.59 55.954,-5.998 111.408,-18.066 164.294,-37.423 C 12.2,-8.129 102.56,-67.148 151.92,-156.198 c 2.042,-3.632 4.488,-8.788 6.41,-12.614 0.853,-1.863 3.502,-8.04 4.284,-9.727 0.443,-1.094 0.847,-2.204 1.274,-3.306 l 2.529,-6.633 c -10.611,36.59 -31.148,69.727 -55.81,98.592 C 79.483,-53.635 41.224,-23.949 0,0" style="fill-opacity: 1; fill-rule: nonzero; stroke: none; fill: rgb(80, 81, 120);" id="path58"/>
        </g>
        <g id="g60" transform="translate(1667.0602,2042.1212)">
          <path d="m 0,0 c 0,3.137 -2.543,5.679 -5.679,5.679 -3.137,0 -5.68,-2.542 -5.68,-5.679 0,-3.137 2.543,-5.679 5.68,-5.679 C -2.543,-5.679 0,-3.137 0,0" style="fill-opacity: 1; fill-rule: nonzero; stroke: none; fill: rgb(80, 81, 120);" id="path62"/>
        </g>
        <g id="g64" transform="translate(1667.0602,2005.3973)">
          <path d="m 0,0 c -3.137,0 -5.679,-2.543 -5.679,-5.679 0,-3.137 2.542,-5.68 5.679,-5.68 3.137,0 5.68,2.543 5.68,5.68 C 5.68,-2.543 3.137,0 0,0" style="fill-opacity: 1; fill-rule: nonzero; stroke: none; fill: rgb(80, 81, 120);" id="path66"/>
        </g>
        <g id="g68" transform="translate(1678.4192,1977.9795)">
          <path d="m 0,0 c -3.137,0 -5.679,-2.543 -5.679,-5.679 0,-3.137 2.542,-5.68 5.679,-5.68 3.137,0 5.679,2.543 5.679,5.68 C 5.679,-2.543 3.137,0 0,0" style="fill-opacity: 1; fill-rule: nonzero; stroke: none; fill: rgb(80, 81, 120);" id="path70"/>
        </g>
        <g id="g72" transform="translate(1642.4304,2016.7644)">
          <path d="m 0,0 c 0,2.661 -2.543,4.817 -5.679,4.817 -3.137,0 -5.68,-2.156 -5.68,-4.817 0,-2.661 2.543,-4.818 5.68,-4.818 C -2.543,-4.818 0,-2.661 0,0" style="fill-opacity: 1; fill-rule: nonzero; stroke: none; fill: rgb(80, 81, 120);" id="path74"/>
        </g>
        <g id="g76" transform="translate(1642.4304,1985.6141)">
          <path d="m 0,0 c -3.137,0 -5.679,-2.157 -5.679,-4.817 0,-2.661 2.542,-4.818 5.679,-4.818 3.137,0 5.679,2.157 5.679,4.818 C 5.679,-2.157 3.137,0 0,0" style="fill-opacity: 1; fill-rule: nonzero; stroke: none; fill: rgb(80, 81, 120);" id="path78"/>
        </g>
        <g id="g80" transform="translate(1653.7893,1962.3577)">
          <path d="m 0,0 c -3.137,0 -5.679,-2.157 -5.679,-4.817 0,-2.661 2.542,-4.818 5.679,-4.818 3.136,0 5.679,2.157 5.679,4.818 C 5.679,-2.157 3.136,0 0,0" style="fill-opacity: 1; fill-rule: nonzero; stroke: none; fill: rgb(80, 81, 120);" id="path82"/>
        </g>
        <g id="g84" transform="translate(1616.7883,1960.2827)">
          <path d="m 0,0 c -3.137,0 -5.679,-1.721 -5.679,-3.845 0,-2.123 2.542,-3.845 5.679,-3.845 3.137,0 5.679,1.722 5.679,3.845 C 5.679,-1.721 3.137,0 0,0" style="fill-opacity: 1; fill-rule: nonzero; stroke: none; fill: rgb(80, 81, 120);" id="path86"/>
        </g>
        <g id="g88" transform="translate(1628.1473,1941.7217)">
          <path d="m 0,0 c -3.137,0 -5.68,-1.721 -5.68,-3.845 0,-2.123 2.543,-3.845 5.68,-3.845 3.137,0 5.679,1.722 5.679,3.845 C 5.679,-1.721 3.137,0 0,0" style="fill-opacity: 1; fill-rule: nonzero; stroke: none; fill: rgb(80, 81, 120);" id="path90"/>
        </g>
        <g id="g92" transform="translate(1611.1089,1920.3438)">
          <path d="m 0,0 c -3.136,0 -5.679,-1.721 -5.679,-3.845 0,-2.123 2.543,-3.845 5.679,-3.845 3.137,0 5.679,1.722 5.679,3.845 C 5.679,-1.721 3.137,0 0,0" style="fill-opacity: 1; fill-rule: nonzero; stroke: none; fill: rgb(80, 81, 120);" id="path94"/>
        </g>
        <g id="g96" transform="translate(2272.6248,1983.1963)">
          <path d="m 0,0 c 0.538,3.09 -1.531,6.032 -4.62,6.57 -3.091,0.538 -6.032,-1.531 -6.571,-4.621 -0.538,-3.09 1.531,-6.031 4.621,-6.57 C -3.48,-5.159 -0.538,-3.09 0,0" style="fill-opacity: 1; fill-rule: nonzero; stroke: none; fill: rgb(80, 81, 120);" id="path98"/>
        </g>
        <g id="g100" transform="translate(2259.7529,1942.3967)">
          <path d="m 0,0 c 0.538,3.09 -1.53,6.031 -4.621,6.57 -3.09,0.538 -6.031,-1.531 -6.569,-4.621 -0.539,-3.09 1.53,-6.031 4.62,-6.57 C -3.479,-5.159 -0.538,-3.09 0,0" style="fill-opacity: 1; fill-rule: nonzero; stroke: none; fill: rgb(80, 81, 120);" id="path102"/>
        </g>
        <g id="g104" transform="translate(2239.2371,1923.9045)">
          <path d="m 0,0 c -3.09,0.538 -6.031,-1.53 -6.57,-4.62 -0.538,-3.091 1.531,-6.032 4.621,-6.57 3.09,-0.539 6.031,1.53 6.57,4.62 C 5.159,-3.48 3.09,-0.538 0,0" style="fill-opacity: 1; fill-rule: nonzero; stroke: none; fill: rgb(80, 81, 120);" id="path106"/>
        </g>
        <g id="g108" transform="translate(2286.1162,1950.2175)">
          <path d="M 0,0 C 3.09,-0.538 5.965,1.15 6.422,3.771 6.878,6.393 4.743,8.954 1.653,9.492 -1.437,10.03 -4.312,8.342 -4.769,5.721 -5.225,3.1 -3.09,0.538 0,0" style="fill-opacity: 1; fill-rule: nonzero; stroke: none; fill: rgb(80, 81, 120);" id="path110"/>
        </g>
        <g id="g112" transform="translate(2280.7705,1919.5295)">
          <path d="m 0,0 c 0.457,2.621 -1.678,5.182 -4.769,5.72 -3.09,0.539 -5.965,-1.15 -6.421,-3.771 -0.457,-2.621 1.678,-5.182 4.768,-5.72 C -3.332,-4.31 -0.457,-2.621 0,0" style="fill-opacity: 1; fill-rule: nonzero; stroke: none; fill: rgb(80, 81, 120);" id="path114"/>
        </g>
        <g id="g116" transform="translate(2260.8208,1904.2881)">
          <path d="m 0,0 c -3.09,0.538 -5.965,-1.15 -6.422,-3.771 -0.456,-2.622 1.678,-5.183 4.769,-5.721 3.09,-0.539 5.965,1.15 6.422,3.771 C 5.225,-3.1 3.09,-0.539 0,0" style="fill-opacity: 1; fill-rule: nonzero; stroke: none; fill: rgb(80, 81, 120);" id="path118"/>
        </g>
        <g id="g120" transform="translate(2296.917,1895.894)">
          <path d="M 0,0 C -3.09,0.539 -5.891,-0.721 -6.255,-2.813 -6.62,-4.905 -4.41,-7.037 -1.32,-7.576 1.771,-8.114 4.571,-6.854 4.935,-4.762 5.3,-2.67 3.09,-0.538 0,0" style="fill-opacity: 1; fill-rule: nonzero; stroke: none; fill: rgb(80, 81, 120);" id="path122"/>
        </g>
        <g id="g124" transform="translate(2282.5415,1879.5576)">
          <path d="M 0,0 C -3.09,0.538 -5.891,-0.721 -6.255,-2.813 -6.619,-4.905 -4.41,-7.037 -1.32,-7.576 1.77,-8.114 4.571,-6.854 4.935,-4.762 5.299,-2.67 3.09,-0.538 0,0" style="fill-opacity: 1; fill-rule: nonzero; stroke: none; fill: rgb(80, 81, 120);" id="path126"/>
        </g>
        <g id="g128" transform="translate(2295.6582,1855.573)">
          <path d="m 0,0 c -3.09,0.538 -5.89,-0.721 -6.255,-2.813 -0.364,-2.092 1.845,-4.224 4.936,-4.762 3.09,-0.539 5.89,0.721 6.254,2.813 C 5.3,-2.67 3.09,-0.538 0,0" style="fill-opacity: 1; fill-rule: nonzero; stroke: none; fill: rgb(80, 81, 120);" id="path130"/>
        </g>
        <g id="g132" transform="translate(2762.4878,2500.1821)">
          <path d="m 0,0 c -0.231,1.871 -0.463,3.741 -0.7,5.607 -0.238,1.872 -0.481,3.74 -0.726,5.606 -8.825,67.421 -21.738,131.466 -36.324,186.99 11.875,-61.973 21.193,-124.499 27.608,-187.302 0.191,-1.871 0.378,-3.741 0.564,-5.612 0.186,-1.871 0.384,-3.741 0.565,-5.612 2.965,-30.727 5.231,-61.515 6.742,-92.334 4.539,-100.115 1.424,-201.753 -23.308,-299.29 -7.48,-28.236 -16.958,-56.473 -29.234,-82.982 -13.63,-29.405 -30.941,-57.215 -52.389,-81.882 23.292,22.966 42.153,50.332 57.353,79.451 23.669,46.176 39.401,99.713 48.889,157.067 4.896,29.592 8.12,60.201 9.916,91.344 1.212,21.022 1.78,42.281 1.755,63.639 -0.042,36.039 -1.749,72.341 -4.772,108.197 C 4.32,-37.909 2.325,-18.836 0,0" style="fill-opacity: 1; fill-rule: nonzero; stroke: none; fill: rgb(80, 81, 120);" id="path134"/>
        </g>
        <g id="g136" transform="translate(2575.6343,3121.1738)">
          <path d="m 0,0 c 3.237,3.755 6.071,7.862 8.451,12.201 0,10e-4 0,10e-4 0,10e-4 0,0 -0.001,-10e-4 -0.001,-10e-4 C -5.655,2.625 -19.048,-5.976 -34.17,-13.212 -53.375,-22.645 -73.144,-29.414 -93.687,-36.113 -60.74,-40.796 -21.477,-25.308 0,0" style="fill-opacity: 1; fill-rule: nonzero; stroke: none; fill: rgb(80, 81, 120);" id="path138"/>
        </g>
        <g id="g140" transform="translate(2592.5652,3091.7402)">
          <path d="m 0,0 c 4.659,5.38 9.072,11.398 12.72,17.477 v 0.001 C 6.46,12.309 0.444,7.217 -5.881,2.358 -44.145,-27.2 -88.321,-47.491 -133.559,-64.054 -85.317,-61.927 -31.655,-36.578 0,0" style="fill-opacity: 1; fill-rule: nonzero; stroke: none; fill: rgb(80, 81, 120);" id="path142"/>
        </g>
        <g id="g144" transform="translate(2605.2854,3109.2178)">
          <path d="M 0,0 V 0 0 C 0,0 0,0 0,0" style="fill-opacity: 1; fill-rule: nonzero; stroke: none; fill: rgb(80, 81, 120);" id="path146"/>
        </g>
        <g id="g148" transform="translate(2576.8911,3041.4177)">
          <path d="m 0,0 c -4.717,-2.844 -9.379,-5.789 -13.917,-8.654 -5.92,-3.738 -12.042,-7.604 -18.224,-11.205 -10.11,-6.172 -20.798,-12.147 -31.228,-17.976 -6.222,-3.479 -12.657,-7.077 -18.891,-10.677 l -5.249,-3.28 6.143,0.136 c 33.871,0.751 72.568,23.571 90.013,53.08 L 11.897,6.918 6.355,3.749 C 4.466,2.668 2.506,1.511 0,0" style="fill-opacity: 1; fill-rule: nonzero; stroke: none; fill: rgb(80, 81, 120);" id="path150"/>
        </g>
        <g id="g152" transform="translate(2082.791,2909.4277)">
          <path d="m 0,0 1.679,15.585 c 2.837,26.335 4.496,53.986 5.2,86.763 3.96,-12.422 7.871,-24.057 11.922,-35.473 3.767,-10.578 6.989,-19.098 10.14,-26.816 l 5.379,-13.177 -2.147,14.07 c -0.63,4.13 -1.38,8.496 -2.432,14.156 -3.829,20.728 -8.753,42.872 -15.494,69.687 -3.089,12.483 -8.265,31.397 -12.83,48.084 l -0.113,0.414 c -1.879,6.865 -3.632,13.271 -5.053,18.553 l -3.256,12.104 -0.269,-53.505 c -0.104,-40.046 0.48,-87.384 5.595,-134.86 z" style="fill-opacity: 1; fill-rule: nonzero; stroke: none; fill: rgb(80, 81, 120);" id="path154"/>
        </g>
        <g id="g156" transform="translate(2141.4329,2914.5598)">
          <path d="m 0,0 c 0.081,0.209 0.164,0.416 0.245,0.626 4.754,12.293 8.913,25.771 13.023,42.171 l 0.226,0.907 0.199,0.791 0.643,-1.628 c 0.372,-0.94 0.742,-1.868 1.112,-2.785 0.05,-0.125 0.101,-0.246 0.151,-0.37 0.325,-0.805 0.65,-1.603 0.974,-2.391 0.038,-0.09 0.075,-0.179 0.112,-0.269 0.344,-0.832 0.686,-1.654 1.029,-2.467 0.013,-0.032 0.026,-0.063 0.04,-0.095 3.757,-8.913 7.481,-16.743 11.416,-24.002 0.08,-0.147 0.16,-0.292 0.24,-0.439 0.293,-0.537 0.586,-1.073 0.881,-1.605 0.167,-0.299 0.334,-0.595 0.502,-0.893 0.173,-0.309 0.346,-0.62 0.52,-0.927 l 1.523,-2.682 -0.477,3.047 c -0.031,0.197 -0.067,0.393 -0.098,0.589 -0.092,0.577 -0.19,1.152 -0.287,1.727 -0.123,0.734 -0.246,1.467 -0.377,2.198 -0.101,0.57 -0.208,1.137 -0.313,1.705 -0.138,0.74 -0.277,1.48 -0.421,2.217 -0.107,0.544 -0.217,1.086 -0.327,1.628 -0.154,0.762 -0.311,1.522 -0.472,2.28 -0.109,0.512 -0.22,1.022 -0.332,1.532 -0.172,0.788 -0.347,1.574 -0.526,2.358 -0.108,0.474 -0.218,0.947 -0.329,1.42 -0.192,0.82 -0.387,1.638 -0.585,2.453 -0.104,0.429 -0.21,0.857 -0.316,1.284 -0.213,0.86 -0.429,1.715 -0.649,2.568 -0.097,0.379 -0.195,0.758 -0.294,1.136 -0.236,0.903 -0.475,1.8 -0.717,2.694 -0.088,0.324 -0.175,0.648 -0.264,0.97 -0.26,0.95 -0.523,1.893 -0.789,2.833 -0.075,0.266 -0.15,0.534 -0.226,0.799 -0.282,0.988 -0.566,1.968 -0.853,2.944 -0.065,0.221 -0.13,0.443 -0.195,0.664 -0.303,1.023 -0.608,2.038 -0.916,3.047 -0.052,0.17 -0.103,0.342 -0.155,0.512 -0.326,1.065 -0.653,2.12 -0.982,3.169 -0.036,0.113 -0.071,0.228 -0.107,0.341 -0.351,1.115 -0.703,2.22 -1.055,3.315 -0.016,0.048 -0.032,0.097 -0.047,0.145 -1.124,3.485 -2.253,6.869 -3.361,10.126 l -2.465,7.289 -3.468,10.256 V 81.186 L 11.432,81.188 7.638,63.049 C 7.406,61.947 7.174,60.828 6.941,59.702 6.646,58.275 6.351,56.835 6.057,55.377 6.044,55.312 6.031,55.246 6.018,55.181 5.769,53.941 5.521,52.69 5.274,51.427 5.26,51.354 5.246,51.28 5.232,51.208 4.988,49.958 4.746,48.699 4.507,47.428 4.487,47.325 4.468,47.22 4.448,47.116 4.217,45.883 3.987,44.64 3.76,43.387 3.733,43.237 3.707,43.086 3.68,42.936 3.463,41.733 3.25,40.523 3.039,39.304 3.005,39.104 2.971,38.903 2.937,38.702 2.737,37.536 2.541,36.365 2.349,35.185 2.306,34.927 2.265,34.668 2.223,34.409 2.043,33.294 1.867,32.174 1.694,31.047 1.644,30.72 1.595,30.392 1.546,30.064 1.386,29.007 1.231,27.946 1.079,26.88 1.023,26.486 0.968,26.09 0.913,25.695 0.773,24.693 0.638,23.689 0.506,22.681 0.446,22.223 0.387,21.765 0.329,21.306 0.209,20.361 0.094,19.413 -0.019,18.463 -0.08,17.941 -0.141,17.42 -0.201,16.897 -0.302,16.009 -0.398,15.118 -0.492,14.225 -0.553,13.643 -0.614,13.06 -0.672,12.476 -0.755,11.641 -0.833,10.804 -0.909,9.966 -0.967,9.329 -1.025,8.692 -1.079,8.053 -1.146,7.262 -1.207,6.469 -1.267,5.676 -1.319,4.996 -1.371,4.315 -1.418,3.634 -1.47,2.874 -1.515,2.114 -1.561,1.353 -1.604,0.642 -1.647,-0.069 -1.684,-0.781 -1.695,-0.982 -1.709,-1.183 -1.719,-1.384 l -0.168,-3.39 1.253,3.154 C -0.421,-1.083 -0.211,-0.541 0,0" style="fill-opacity: 1; fill-rule: nonzero; stroke: none; fill: rgb(80, 81, 120);" id="path158"/>
        </g>
        <g id="g160" transform="translate(1957.3455,2929.1113)">
          <path d="M 0,0 C 6.098,14.505 12.379,29.958 18.688,45.973 18.603,41.296 18.525,36.427 18.453,31.412 l -0.618,-65.625 7.776,24.954 c 8.375,26.857 17.027,54.601 25.141,81.916 0.516,-5.688 1.025,-11.062 1.549,-16.347 1.65,-16.456 3.496,-34.031 5.807,-51.069 l 0.069,-0.513 3.278,0.176 0.014,0.519 c 0.465,17.476 0.395,35.788 0.265,51.396 -0.149,18.939 -0.724,39.417 -1.28,59.221 -0.183,6.458 -0.362,12.836 -0.522,19.053 l -0.255,9.752 -3.039,-9.27 c -1.944,-5.929 -4.32,-13.093 -6.756,-20.437 l -0.379,-1.14 C 46.304,104.358 42.997,94.391 40.492,86.686 37.866,78.69 35.113,70.138 32.107,60.63 31.78,74.18 31.342,88.878 30.741,106.531 l -0.343,10.094 -2.959,-9.657 c -1.424,-4.65 -2.863,-9.318 -4.306,-14 L 22.838,92.01 C 13.645,62.182 4.138,31.339 -3.198,1.052 L -3.32,0.547 -0.201,-0.479 Z" style="fill-opacity: 1; fill-rule: nonzero; stroke: none; fill: rgb(80, 81, 120);" id="path162"/>
        </g>
        <g id="g164" transform="translate(2109.457,2447.7988)">
          <path d="m 0,0 -6.947,2.002 c -1.708,0.519 -5.343,1.493 -7.062,1.892 -50.159,12.712 -105.766,13.454 -165.272,2.203 -7.505,-1.454 -14.317,-2.99 -20.802,-4.689 l -9.84,55.477 c -3.873,21.84 -7.57,42.687 -9.184,51.745 l -1.852,10.39 -1.483,-10.449 c -1.175,-8.286 -3.032,-21.435 -4.938,-34.935 -2.173,-15.392 -4.412,-31.242 -5.778,-40.866 L -236.67,7.745 -246.677,31.98 c -12.102,29.276 -22.047,53.245 -29.56,71.24 l -2.915,6.982 -0.33,-7.559 c -1.053,-24.126 -1.799,-44.347 -2.017,-64.618 -0.034,-2.605 -0.051,-5.212 -0.058,-7.818 -0.005,-1.882 -0.007,-3.764 0.003,-5.645 0.009,-1.882 0.028,-3.764 0.054,-5.646 0.032,-2.379 0.075,-4.758 0.139,-7.178 0.083,-1.662 0.139,-3.332 0.199,-5.083 0.211,-6.284 0.43,-12.776 2.015,-19.045 l -37.711,-13.023 1.022,-3.192 45.072,13.328 -1.852,1.996 c -0.402,0.433 -0.689,0.742 -0.906,0.963 -0.681,1.311 -0.88,3.277 -1.04,4.86 -0.758,9.448 -0.634,18.679 -0.412,26.463 0.052,1.875 0.112,3.75 0.181,5.625 0.068,1.879 0.137,3.758 0.211,5.661 0.098,2.518 0.195,5.035 0.28,7.533 0.458,10.398 1.032,20.946 1.75,32.162 l 19.548,-50.637 c 6.726,-17.401 13.746,-35.545 19.166,-49.332 l 2.274,-5.786 0.966,6.142 c 0.696,4.433 2.357,14.902 4.131,26.069 l 6.414,40.548 8.07,-48.48 c 0.661,-3.972 0.735,-4.384 2.333,-4.253 l 0.269,0.052 c 68.69,19.56 143.467,20.24 205.142,1.87 l 9.868,-3.212 19.613,-7.251 -0.125,56.335 6.827,-12.766 C 40.093,4.047 48.13,-10.984 51.221,-16.723 l 3.218,-5.978 -0.043,6.789 c -0.036,5.667 -0.109,17.955 -0.189,31.444 l -0.295,49.074 -0.107,12.062 c 1.923,-7.564 4.023,-15.85 6.145,-24.226 L 65.4,30.959 C 68.745,17.792 71.003,8.965 72.723,2.336 l 1.613,-6.215 8.105,30.408 0.897,-48.738 28.996,-24.62 2.227,2.505 -26.192,24.367 c 0.253,11.203 0.54,28.57 0.794,43.906 l 0.326,19.405 c 0.071,4.023 0.137,7.701 0.2,10.844 L 90.151,82.05 74.988,31.513 68.253,61.088 C 62.989,84.291 57.545,108.285 53.221,126.271 L 42.211,173.63 41.702,115.728 C 41.523,95.418 41.275,66.878 41.096,41.781 L 41.027,31.3 11.063,88.745 10.86,-3.614 c -1.558,0.558 -2.846,0.995 -3.916,1.329 z" style="fill-opacity: 1; fill-rule: nonzero; stroke: none; fill: rgb(80, 81, 120);" id="path166"/>
        </g>
        <g id="g168" transform="translate(2674.3137,2435.9229)">
          <path d="M 0,0 0.266,-0.225 C 1.521,-1.286 2.779,-2.35 4.068,-3.391 l 10.063,-8.132 -7.638,10.442 c -6.666,9.112 -13.255,16.691 -20.139,23.164 -16.461,15.938 -36.318,28.707 -59.021,37.95 -4.618,1.881 -9.378,3.622 -14.147,5.172 -5.895,1.917 -11.989,3.608 -18.115,5.027 -16.385,3.796 -33.274,5.756 -50.204,5.827 -23.229,-0.027 -43.08,-2.757 -60.685,-8.347 l -13.396,-4.253 14.022,0.959 c 16.48,1.127 32.845,1.225 48.638,0.291 12.532,-0.741 25.051,-2.177 37.209,-4.269 7.639,-1.315 15.275,-2.926 22.695,-4.788 6.808,-1.709 13.058,-3.498 19.106,-5.468 20.069,-6.72 38.912,-15.669 56.003,-26.596 C -20.264,16.267 -10.526,9.038 -1.762,1.481 -1.173,0.991 -0.587,0.496 0,0" style="fill-opacity: 1; fill-rule: nonzero; stroke: none; fill: rgb(80, 81, 120);" id="path170"/>
        </g>
        <g id="g172" transform="translate(1560.9951,2581.9473)">
          <path d="m 0,0 c 13.439,0.131 25.552,-0.51 37.033,-1.963 0.878,-0.097 1.755,-0.199 2.71,-0.31 1.606,-0.188 3.218,-0.375 4.841,-0.528 L 57.461,-4.016 45.328,0.464 C 34.742,4.373 25.062,7.046 15.743,8.636 c -48.16,8.945 -102.012,-3.164 -147.744,-33.224 -19.343,-12.863 -34.376,-26.11 -45.959,-40.5 l -7.179,-8.919 c -2.064,39.216 8.761,75.828 30.55,103.195 l 0.003,0.004 c 17.757,22.516 42.382,41.052 73.192,55.095 26.365,12.016 57.265,20.561 89.334,24.707 l 4.109,0.427 0.47,57.742 8.915,-6.348 c 8.112,-5.778 16.571,-11.803 19.509,-13.879 l 0.006,-0.519 0.992,0.002 c 0.723,0.002 0.922,0.441 0.981,1.049 h 0.016 l -0.002,0.19 c 0.008,0.174 0.01,0.357 0.012,0.546 l 0.211,36.359 c 0.063,11.445 0.131,23.589 0.188,33.345 l 47.43,-72.886 -3.915,62.652 -0.814,12.644 33.646,-56.342 11.817,79.999 3.075,21.115 3.405,-19.718 c 5.037,-29.172 10.246,-59.337 11.281,-65.263 l 0.64,-3.661 1.284,3.488 c 7.329,19.912 17.001,46.267 25.568,69.669 l 2.41,-16.42 c 3.425,-23.346 7.132,-48.611 7.705,-52.467 l 0.415,-2.793 36.06,61.092 0.528,-78.769 64.532,45.472 c -5.887,-19.915 -14.506,-49.183 -19.72,-67.029 l -0.363,-1.243 1.295,-0.036 c 30.686,-0.858 58.845,-7.953 81.431,-20.516 19.214,-10.747 33.007,-26.76 38.842,-45.106 2.018,-5.989 3.301,-12.547 3.921,-20.049 l 1.996,0.13 c -0.367,7.704 -1.452,14.488 -3.311,20.72 -6.816,24.744 -27.938,45.837 -57.945,57.87 -17.687,7.18 -36.895,11.68 -57.111,13.381 l 4.66,14.639 c 6.813,21.396 15.291,48.023 20.759,65.485 l 0.857,2.734 -2.372,-1.608 c -0.936,-0.634 -16.766,-11.486 -33.524,-22.973 -12.75,-8.74 -26.156,-17.93 -34.328,-23.529 0.071,9.41 0.139,24.043 0.21,39.474 0.118,25.577 0.24,52.024 0.391,56.284 l 0.136,3.837 -1.99,-3.283 c -2.334,-3.851 -11.49,-18.941 -21.138,-34.843 l -16.914,-27.88 c -1.187,8.561 -2.666,19.202 -4.172,30.033 -3.189,22.94 -6.487,46.663 -7.387,53.368 l -0.53,3.947 -22.296,-59.479 -5.333,-14.298 -20.916,123.011 -6.025,-40.975 c -3.822,-25.8 -10.749,-73.245 -15.457,-105.711 l -42.389,70.551 1.831,-26.613 c 0.723,-10.757 1.973,-28.763 3.816,-54.97 l -43.654,65.903 0.547,-90.852 -8.857,6.117 c -8.635,5.961 -17.563,12.125 -19.459,13.454 l -1.589,1.112 0.519,-69.192 c -4.524,-0.653 -9.264,-1.487 -14.834,-2.609 -53.056,-10.975 -97.264,-32.147 -127.845,-61.228 -36.012,-34.247 -51.913,-77.661 -47.26,-129.036 l 0.233,-2.388 1.799,2.159 -0.023,0.395 c -0.007,0.122 -0.011,0.244 -0.018,0.365 l 9.486,7.27 c 36.632,28.075 75.07,47.823 114.244,58.695 C -40.94,-3.301 -20.29,-0.343 0,0" style="fill-opacity: 1; fill-rule: nonzero; stroke: none; fill: rgb(80, 81, 120);" id="path174"/>
        </g>
        <g id="g176" transform="translate(1765.7698,1570.2903)">
          <path d="m 0,0 34.062,23.507 21.035,-57.581 1.454,4.89 c 0.565,1.9 3.603,12.23 6.94,23.572 l 5.996,20.378 2.391,-4.498 C 75.766,2.96 81.54,-7.78 87.234,-18.37 92.41,-27.994 97.52,-37.496 101.083,-44.182 l 1.533,-2.875 20.229,40.203 10.902,-26.615 c 7.402,-18.064 16.614,-40.545 18.86,-46.081 l 2.117,-5.22 1.103,5.523 c 4.153,20.783 9.247,46.73 14.014,71.378 l 7.478,-9.395 c 11.392,-14.314 24.303,-30.54 33.589,-42.071 l 6.757,-8.429 31.649,56.341 c 1.826,-8.954 5.657,-27.695 7.994,-38.778 l 6.801,-32.811 1.644,8.031 c 1.641,8.006 4.887,23.885 8.181,40.001 l 5.368,26.258 c 5.737,-9.35 11.532,-18.756 17.317,-28.146 l 0.758,-1.231 c 5.662,-9.192 11.313,-18.365 16.889,-27.453 l 4.06,-6.619 -3.308,26.983 c -0.966,8.144 -2.637,21.524 -4.111,33.329 l -1.171,9.388 c 8.471,-5.989 17.883,-12.611 26.94,-18.982 l 0.278,-0.197 c 8.029,-5.648 15.769,-11.092 22.318,-15.721 l 12.755,-8.911 -23.961,51.874 29.677,0.654 -21.411,36.2 -2.925,-1.628 15.31,-29.267 -30.812,0.678 13.95,-33.447 c -5.864,4.411 -12.145,9.098 -18.265,13.664 -9.534,7.113 -19.393,14.469 -27.451,20.622 l -9.612,7.21 0.391,-3.835 c 0.668,-6.555 1.46,-14.592 2.288,-23 l 0.065,-0.674 c 0.397,-4.033 0.802,-8.144 1.204,-12.212 -5.841,9.947 -12.334,20.991 -18.653,31.601 l -8.448,14.187 -0.918,-4.165 C 271.72,18.844 268.953,6.098 265.962,-7.679 l -1.527,-7.033 -8.688,43.72 -40.173,-70.83 c -12.998,16.254 -29.493,36.773 -41.58,51.809 l -12.411,15.45 -2.898,-15.295 c -1.467,-7.873 -3.216,-17.035 -5.028,-26.537 -1.289,-6.757 -2.605,-13.653 -3.864,-20.321 l -6.528,15.402 c -8.448,19.933 -17.284,40.782 -17.983,42.435 l -1.459,3.449 -21.795,-45.45 C 95.154,-8.667 87.473,4.875 80.039,17.984 l -0.813,1.432 C 75.37,26.214 71.676,32.728 68.359,38.593 L 66.315,42.206 53.731,-5.487 37.383,34.699 15.165,17.925 c 2.718,5.818 5.421,11.642 8.125,17.467 2.045,4.406 4.089,8.812 6.14,13.214 l 0.232,0.497 -2.997,1.491 -0.257,-0.486 C 24.188,45.913 21.961,41.717 19.734,37.522 L 19.621,37.308 C 14.187,27.069 8.568,16.481 3.134,6.027 Z" style="fill-opacity: 1; fill-rule: nonzero; stroke: none; fill: rgb(80, 81, 120);" id="path178"/>
        </g>
        <g id="g180" transform="translate(2147.6812,1093.5632)">
          <path d="m 0,0 c -1.506,-80.635 -67.559,-145.77 -148.548,-145.77 -79.787,0 -145.076,63.216 -148.437,142.19 -0.09,2.121 -0.146,4.25 -0.146,6.393 0,1.647 0.036,3.285 0.09,4.92 2.606,79.66 68.211,143.664 148.493,143.664 79.076,0 143.913,-62.094 148.335,-140.083 C -0.054,8.499 0.036,5.667 0.036,2.813 0.036,1.872 0.017,0.936 0,0 m -148.548,156.397 c -82.88,0 -150.627,-65.994 -153.478,-148.193 -0.063,-1.79 -0.105,-3.586 -0.105,-5.391 0,-1.983 0.05,-3.953 0.125,-5.917 3.121,-81.953 70.755,-147.666 153.458,-147.666 83.949,0 152.371,67.706 153.556,151.378 0.01,0.735 0.028,1.467 0.028,2.205 0,3.057 -0.101,6.091 -0.278,9.104 -4.728,80.464 -71.677,144.48 -153.306,144.48" style="fill-opacity: 1; fill-rule: nonzero; stroke: none; fill: rgb(80, 81, 120);" id="path182"/>
        </g>
        <g id="g184" transform="translate(2030.4404,1037.8232)">
          <path d="m 0,0 c -4.501,-3.791 -11.095,-5.713 -19.598,-5.713 h -35.469 v 43.96 h 34.608 c 8.493,0 15.226,-2.062 20.011,-6.129 C 4.16,28.2 6.4,22.827 6.4,15.692 6.4,8.76 4.307,3.627 0,0 m 6.028,39.737 c -3.702,3.147 -8.111,5.427 -13.179,6.831 -4.026,1.115 -8.468,1.679 -13.308,1.679 H -65.067 V 46.08 -15.713 h 45.469 c 10.925,0 19.686,2.713 26.039,8.065 6.608,5.564 9.959,13.418 9.959,23.34 0,10.105 -3.489,18.195 -10.372,24.045" style="fill-opacity: 1; fill-rule: nonzero; stroke: none; fill: rgb(80, 81, 120);" id="path186"/>
        </g>
        <g id="g188" transform="translate(2070.5078,1023.082)">
          <path d="m 0,0 c -4.717,-7.286 -11.687,-13.095 -20.716,-17.264 -9.245,-4.265 -20.418,-6.428 -33.209,-6.428 h -81.392 v 85.193 11.265 93.881 h 77.661 c 12.808,0 23.953,-2.075 33.12,-6.166 8.91,-3.983 15.716,-9.541 20.227,-16.516 4.517,-6.995 6.807,-15.064 6.807,-23.981 0,-10.606 -2.697,-19.167 -8.247,-26.171 -5.635,-7.11 -12.965,-12.01 -22.409,-14.982 l -19.096,-6.009 1.156,-0.216 18.523,-3.46 c 5.846,-1.092 11.016,-3.201 15.604,-6.368 3.383,-2.334 6.451,-5.241 9.234,-8.755 C 3.875,45.67 7.09,36.357 7.09,25.555 7.09,15.87 4.704,7.272 0,0 m 5.104,60.231 c -0.942,1.189 -1.927,2.308 -2.934,3.391 -4.033,4.34 -8.583,7.831 -13.621,10.455 -0.429,0.224 -0.851,0.459 -1.287,0.67 5.756,3.372 10.717,7.67 14.827,12.856 6.907,8.717 10.409,19.612 10.409,32.381 0,10.873 -2.828,20.767 -8.408,29.408 -5.581,8.63 -13.839,15.433 -24.548,20.219 -10.461,4.669 -22.976,7.036 -37.198,7.036 h -87.661 V 73.135 61.871 -33.692 h 91.392 c 14.248,0 26.831,2.472 37.4,7.349 10.775,4.975 19.159,12.01 24.921,20.91 5.769,8.918 8.694,19.344 8.694,30.988 0,12.961 -4.032,24.627 -11.986,34.675 z" style="fill-opacity: 1; fill-rule: nonzero; stroke: none; fill: rgb(80, 81, 120);" id="path190"/>
        </g>
        <g id="g192" transform="translate(1975.3735,1157.2959)">
          <path d="m 0,0 h 31.738 c 8.3,0 14.644,-1.819 18.857,-5.406 4.032,-3.438 5.993,-8.295 5.993,-14.852 0,-6.535 -1.946,-11.335 -5.951,-14.672 -4.22,-3.515 -10.578,-5.299 -18.899,-5.299 H 0 Z m 57.04,-42.611 c 6.335,5.279 9.548,12.8 9.548,22.353 0,9.529 -3.198,17.086 -9.508,22.464 C 51.005,7.378 42.48,10 31.738,10 H -10 v -60.229 h 41.738 c 10.723,0 19.236,2.563 25.302,7.618" style="fill-opacity: 1; fill-rule: nonzero; stroke: none; fill: rgb(80, 81, 120);" id="path194"/>
        </g>
        <g id="g196" transform="translate(1150.891,555.2639)">
          <path d="m 0,0 c -7.152,-6.461 -15.067,-12.089 -23.723,-16.849 0.75,-0.335 1.491,-0.687 2.233,-1.037 1.394,-0.658 2.779,-1.334 4.143,-2.046 10.144,6.809 19.051,15.011 26.633,24.577 6.02,7.597 10.848,15.976 14.51,25.074 C 20.94,24.526 17.684,19.581 13.989,14.918 9.718,9.531 5.047,4.56 0,0" style="fill-opacity: 1; fill-rule: nonzero; stroke: none; fill: rgb(80, 81, 120);" id="path198"/>
        </g>
        <g id="g200" transform="translate(1158.8118,325.0933)">
          <path d="m 0,0 c -10.587,-9.599 -23.07,-17.742 -37.359,-24.339 -23.326,-10.764 -50.868,-16.532 -81.938,-17.176 -1.948,-0.043 -3.912,-0.065 -5.892,-0.065 h -200.68 -4 v 0 h -4 v -8 h 208.68 c 32.615,0 61.319,5.616 85.317,16.689 24.16,11.154 42.914,26.859 55.741,46.679 3.892,6.015 7.193,12.352 9.917,18.981 -1.517,-2.805 -3.141,-5.554 -4.88,-8.242 C 15.078,15.522 8.092,7.336 0,0" style="fill-opacity: 1; fill-rule: nonzero; stroke: none; fill: rgb(80, 81, 120);" id="path202"/>
        </g>
        <g id="g204" transform="translate(1066.5858,473.9138)">
          <path d="m 0,0 c -10.931,9.292 -25.958,14.294 -44.706,14.897 -1.287,0.037 -2.583,0.063 -3.897,0.063 h -83.84 v -4 -4 h 83.84 c 22.036,0 39.696,-5.513 52.489,-16.388 4.038,-3.433 7.417,-7.249 10.154,-11.471 C 12.2,-15.256 9.467,-10.24 5.79,-5.827 4.065,-3.757 2.136,-1.816 0,0" style="fill-opacity: 1; fill-rule: nonzero; stroke: none; fill: rgb(80, 81, 120);" id="path206"/>
        </g>
        <g id="g208" transform="translate(1057.0593,668.0603)">
          <path d="m 0,0 c -9.66,8.225 -23.79,12.656 -42.035,13.196 -1.267,0.033 -2.544,0.057 -3.842,0.057 h -77.04 v -4 -4 h 77.04 c 21.579,0 38.324,-4.94 49.765,-14.683 3.347,-2.854 6.175,-6.038 8.521,-9.554 C 10.823,-13.868 8.457,-9.357 5.281,-5.42 3.714,-3.479 1.959,-1.67 0,0" style="fill-opacity: 1; fill-rule: nonzero; stroke: none; fill: rgb(80, 81, 120);" id="path210"/>
        </g>
        <g id="g212" transform="translate(1357.376,283.5137)">
          <path d="m 0,0 h -87.2 -4 -4 V -8 H 8 V 0 H 4 Z" style="fill-opacity: 1; fill-rule: nonzero; stroke: none; fill: rgb(80, 81, 120);" id="path214"/>
        </g>
        <g id="g216" transform="translate(1893.8649,615.3535)">
          <path d="m 0,0 h -4.222 -101.597 -2.35 -2.281 -3.655 l -2.843,5.211 c -4.5,8.248 -9.808,15.629 -15.872,22.125 -7.27,7.788 -15.628,14.3 -25.031,19.453 -16.367,8.96 -35.664,13.781 -57.415,14.353 -1.465,0.035 -2.938,0.058 -4.423,0.058 -1.644,0 -3.276,-0.027 -4.901,-0.071 -24.206,-0.699 -46.005,-6.614 -64.859,-17.606 -9.836,-5.739 -18.668,-12.763 -26.453,-21.001 -8.044,-8.509 -14.971,-18.316 -20.712,-29.37 -1.706,-3.286 -3.271,-6.67 -4.726,-10.126 11.792,22.241 28.22,39.632 48.866,51.678 21.05,12.274 45.538,18.496 72.785,18.496 24.582,0 46.357,-5.096 64.718,-15.147 18.272,-10.014 32.837,-24.807 43.291,-43.969 L -110.544,-8 H 6.777 L 5.123,-2.79 C 4.826,-1.854 4.516,-0.928 4.209,0 H 1.311 Z" style="fill-opacity: 1; fill-rule: nonzero; stroke: none; fill: rgb(80, 81, 120);" id="path218"/>
        </g>
        <g id="g220" transform="translate(1797.5916,466.5937)">
          <path d="M 0,0 C 0.455,1.321 0.899,2.651 1.323,4 1.739,5.323 2.15,6.65 2.536,8 h -146.432 -4 -4 V 0 Z" style="fill-opacity: 1; fill-rule: nonzero; stroke: none; fill: rgb(80, 81, 120);" id="path222"/>
        </g>
        <g id="g224" transform="translate(1846.4587,345.7588)">
          <path d="m 0,0 c -16.476,-15.482 -35.372,-28.773 -56.509,-39.708 -32.129,-16.614 -68.303,-25.519 -107.622,-26.518 -2.477,-0.066 -4.968,-0.099 -7.472,-0.099 -1.406,0 -2.809,0.01 -4.208,0.03 -45.682,0.625 -87.639,11.442 -124.765,32.178 -17.641,9.845 -33.609,21.57 -47.867,35.049 -16.755,15.84 -31.139,34.11 -42.972,54.724 -2.024,3.524 -3.953,7.098 -5.792,10.719 3.286,-7.439 6.951,-14.687 10.995,-21.731 21.354,-37.198 51.15,-66.644 88.558,-87.521 37.362,-20.867 79.772,-31.448 126.051,-31.448 41.248,0 79.044,8.729 112.338,25.947 33.264,17.207 60.838,40.365 81.955,68.83 C 33.389,34.875 42.245,50.066 49.224,65.904 43.082,53.809 35.844,42.114 27.509,30.877 19.279,19.784 10.092,9.483 0,0" style="fill-opacity: 1; fill-rule: nonzero; stroke: none; fill: rgb(80, 81, 120);" id="path226"/>
        </g>
        <g id="g228" transform="translate(2303.5081,629.6338)">
          <path d="m 0,0 h -4.02 -96.683 -3.676 -0.367 -4.029 c 0.177,-1.385 0.321,-2.787 0.402,-4.224 L -108.161,-8 H 4.651 l -0.32,4.298 C 4.238,-2.46 4.131,-1.227 4.015,0 H 0.342 Z" style="fill-opacity: 1; fill-rule: nonzero; stroke: none; fill: rgb(80, 81, 120);" id="path230"/>
        </g>
        <g id="g232" transform="translate(2035.2813,507.418)">
          <path d="m 0,0 c 19.376,-8.892 44.838,-17.996 75.728,-27.076 22.424,-6.287 40.245,-12.073 52.962,-17.197 12.321,-4.975 22.717,-11.861 30.896,-20.464 1.541,-1.625 2.924,-3.328 4.16,-5.112 -1.426,5.034 -3.777,9.473 -7.088,13.385 -0.456,0.538 -0.925,1.07 -1.417,1.589 -7.588,7.981 -17.276,14.386 -28.79,19.035 -12.518,5.044 -30.128,10.759 -52.343,16.987 l -0.06,0.017 -0.061,0.017 C 42.87,-9.672 17.135,-0.464 -2.501,8.546 c -12.962,5.945 -24.857,13.865 -35.564,23.656 -6.369,5.825 -12.319,12.311 -17.82,19.44 -2.9,3.752 -5.521,7.751 -7.872,11.982 3.305,-8.233 7.502,-15.691 12.618,-22.311 C -36.986,22.972 -19.78,9.072 0,0" style="fill-opacity: 1; fill-rule: nonzero; stroke: none; fill: rgb(80, 81, 120);" id="path234"/>
        </g>
        <g id="g236" transform="translate(2272.9934,324.4009)">
          <path d="m 0,0 c -10.547,-9.683 -22.793,-18.107 -36.689,-25.18 -25.117,-12.779 -54.895,-19.626 -88.59,-20.391 -2.111,-0.05 -4.24,-0.076 -6.385,-0.076 -2.034,0 -4.056,0.022 -6.067,0.066 -31.946,0.668 -61.284,6.625 -87.281,17.738 -18.13,7.743 -33.943,17.829 -47.299,30.099 -7.343,6.746 -13.954,14.142 -19.774,22.194 -3.481,4.81 -6.59,9.825 -9.369,15.016 3.742,-9.037 8.479,-17.552 14.228,-25.497 15.764,-21.806 37.488,-38.728 64.57,-50.295 26.887,-11.492 57.503,-17.321 90.992,-17.321 35.373,0 66.412,6.667 92.255,19.815 25.935,13.202 45.923,31.207 59.409,53.516 3.636,6.021 6.772,12.206 9.436,18.533 -1.358,-2.57 -2.781,-5.12 -4.302,-7.638 C 18.317,19.302 9.908,9.096 0,0" style="fill-opacity: 1; fill-rule: nonzero; stroke: none; fill: rgb(80, 81, 120);" id="path238"/>
        </g>
        <g id="g240" transform="translate(2172.0303,672.3765)">
          <path d="m 0,0 c -10.323,8.507 -24.244,13.087 -41.415,13.639 -1.179,0.033 -2.364,0.058 -3.566,0.058 -1.064,0 -2.113,-0.022 -3.155,-0.053 -14.738,-0.477 -26.171,-4.355 -34.879,-11.821 -1.774,-1.52 -3.358,-3.187 -4.769,-4.993 -2.764,-3.536 -4.83,-7.634 -6.223,-12.324 1.995,2.9 4.348,5.527 7.09,7.875 10.306,8.835 24.414,13.316 41.936,13.316 20.247,0 36.665,-5.07 48.795,-15.066 4.578,-3.776 8.324,-7.881 11.264,-12.349 -1.723,5.553 -4.507,10.579 -8.379,15.142 C 4.742,-4.27 2.518,-2.077 0,0" style="fill-opacity: 1; fill-rule: nonzero; stroke: none; fill: rgb(80, 81, 120);" id="path242"/>
        </g>
        <g id="g244" transform="translate(2713.5129,555.2642)">
          <path d="m 0,0 c -7.152,-6.461 -15.067,-12.089 -23.723,-16.85 0.75,-0.334 1.491,-0.687 2.233,-1.037 1.394,-0.658 2.778,-1.333 4.142,-2.046 10.144,6.81 19.052,15.011 26.634,24.578 6.02,7.596 10.848,15.976 14.511,25.074 C 20.94,24.526 17.684,19.581 13.988,14.918 9.718,9.53 5.047,4.56 0,0" style="fill-opacity: 1; fill-rule: nonzero; stroke: none; fill: rgb(80, 81, 120);" id="path246"/>
        </g>
        <g id="g248" transform="translate(2721.4333,325.0928)">
          <path d="m 0,0 c -10.587,-9.599 -23.07,-17.742 -37.359,-24.339 -23.325,-10.764 -50.868,-16.532 -81.938,-17.176 -1.948,-0.042 -3.912,-0.064 -5.892,-0.064 h -200.68 -4 -4 v -8 h 208.68 c 32.615,0 61.319,5.615 85.317,16.688 24.16,11.155 42.914,26.86 55.741,46.679 3.892,6.015 7.193,12.351 9.916,18.979 -1.517,-2.804 -3.14,-5.552 -4.879,-8.239 C 15.078,15.522 8.092,7.337 0,0" style="fill-opacity: 1; fill-rule: nonzero; stroke: none; fill: rgb(80, 81, 120);" id="path250"/>
        </g>
        <g id="g252" transform="translate(2619.6807,668.0603)">
          <path d="m 0,0 c -9.659,8.225 -23.789,12.656 -42.034,13.196 -1.268,0.033 -2.544,0.057 -3.842,0.057 h -77.04 v -4 -4 h 77.04 c 21.58,0 38.323,-4.94 49.765,-14.683 3.347,-2.854 6.175,-6.039 8.521,-9.554 C 10.823,-13.868 8.458,-9.357 5.281,-5.42 3.715,-3.479 1.959,-1.67 0,0" style="fill-opacity: 1; fill-rule: nonzero; stroke: none; fill: rgb(80, 81, 120);" id="path254"/>
        </g>
        <g id="g256" transform="translate(2629.2078,473.9141)">
          <path d="m 0,0 c -10.93,9.292 -25.957,14.294 -44.706,14.897 -1.287,0.037 -2.582,0.063 -3.897,0.063 h -83.84 v -4 -4 h 83.84 c 22.037,0 39.696,-5.514 52.489,-16.389 4.039,-3.432 7.417,-7.249 10.155,-11.472 C 12.2,-15.257 9.467,-10.241 5.79,-5.828 4.065,-3.757 2.136,-1.816 0,0" style="fill-opacity: 1; fill-rule: nonzero; stroke: none; fill: rgb(80, 81, 120);" id="path258"/>
        </g>
        <g id="g260" transform="translate(2782.7646,758.1533)">
          <path d="m 0,0 157.753,-302.86 v 1.012 L 0.527,0 Z" style="fill-opacity: 1; fill-rule: nonzero; stroke: none; fill: rgb(80, 81, 120);" id="path262"/>
        </g>
        <g id="g264" transform="translate(3212.2764,758.1533)">
          <path d="m 0,0 -156.559,-301.839 v -0.968 L 0.503,0 Z" style="fill-opacity: 1; fill-rule: nonzero; stroke: none; fill: rgb(80, 81, 120);" id="path266"/>
        </g>
        <g id="g268" transform="translate(3041.7178,283.5137)">
          <path d="m 0,0 h -87.2 -4 -4 V -8 H 8 V 0 H 4 Z" style="fill-opacity: 1; fill-rule: nonzero; stroke: none; fill: rgb(80, 81, 120);" id="path270"/>
        </g>
        <g id="g272" transform="translate(1081.9023,631.4736)">
          <path d="m 0,0 c 0,-2.403 -0.099,-4.735 -0.294,-6.997 -0.606,-7.038 -2.17,-13.384 -4.664,-19.059 -3.055,-6.954 -7.512,-12.896 -13.402,-17.804 -12.24,-10.2 -29.697,-15.3 -52.36,-15.3 h -83.04 -4 v 105 4 10 h 87.04 c 22.663,0 40.12,-5.217 52.36,-15.64 C -9.153,36.352 -3.412,26.073 -1.13,13.359 -0.378,9.17 0,4.718 0,0 m 11.56,-197.88 c 0,-2.412 -0.099,-4.754 -0.288,-7.032 -0.608,-7.35 -2.205,-14.005 -4.776,-19.974 -3.229,-7.494 -7.993,-13.91 -14.316,-19.234 -9.69,-8.16 -22.248,-13.26 -37.676,-15.3 -5.143,-0.68 -10.604,-1.02 -16.384,-1.02 v 0 h -91.88 -4 v 113.84 4 10 h 93.84 c 23.12,0 41.48,-5.78 55.08,-17.34 10.213,-8.681 16.59,-19.854 19.133,-33.519 0.844,-4.533 1.267,-9.34 1.267,-14.421 m 70.72,63.24 c -11.5,14.521 -25.128,25.282 -40.861,32.334 -1.573,0.705 -3.166,1.376 -4.781,2.006 -1.729,0.675 -3.478,1.316 -5.255,1.905 -4.843,1.606 -9.86,2.904 -15.063,3.875 24.48,7.704 44.083,20.846 58.82,39.44 6.352,8.015 11.328,16.879 14.942,26.583 4.032,10.822 6.346,22.704 6.968,35.626 0.113,2.353 0.19,4.728 0.19,7.151 0,9.854 -1.066,19.266 -3.167,28.251 -2.924,12.503 -7.866,24.17 -14.853,34.99 -12.017,18.583 -29.697,33.085 -53.04,43.519 -23.354,10.423 -51.117,15.64 -83.3,15.64 h -195.84 v -10 0 -464.64 0 h 4 200.68 c 32.183,0 60.063,5.44 83.64,16.32 23.566,10.88 41.586,25.947 54.06,45.22 4.611,7.128 8.365,14.677 11.271,22.642 4.193,11.493 6.598,23.865 7.238,37.106 0.115,2.385 0.191,4.79 0.191,7.232 0,9.886 -1.09,19.372 -3.222,28.474 -3.929,16.772 -11.453,32.221 -22.618,46.326" style="fill-opacity: 1; fill-rule: nonzero; stroke: none; fill: rgb(80, 81, 120);" id="path274"/>
        </g>
        <g id="g276" transform="translate(1357.376,293.5137)">
          <path d="m 0,0 h 4 v 460.64 4 10 h -95.2 v -10 -4 V 0 h 4 z" style="fill-opacity: 1; fill-rule: nonzero; stroke: none; fill: rgb(80, 81, 120);" id="path278"/>
        </g>
        <g id="g280" transform="translate(1649.6958,547.3535)">
          <path d="m 0,0 v -4 -58.76 h 4 159.2 c -0.719,-3.415 -1.539,-6.734 -2.414,-10 -0.36,-1.344 -0.727,-2.681 -1.114,-4 -0.711,-2.425 -1.472,-4.802 -2.272,-7.142 -8.372,-24.488 -21.609,-44.315 -39.76,-59.438 -23.12,-19.273 -52.817,-28.9 -89.08,-28.9 -29.474,0 -55.313,6.344 -77.52,19.04 -22.217,12.686 -39.557,30.823 -52.02,54.4 -3.518,6.647 -6.521,13.631 -9.046,20.928 -5.754,16.633 -8.935,34.951 -9.537,54.96 -0.07,2.337 -0.117,4.689 -0.117,7.072 0,17.048 1.881,32.981 5.625,47.812 3.026,11.984 7.265,23.251 12.735,33.788 12.24,23.566 29.24,41.703 51,54.4 21.76,12.687 46.686,19.04 74.8,19.04 25.383,0 47.6,-5.217 66.64,-15.639 C 110.16,113.126 125.12,97.943 136,78 h 100.241 4.308 4.283 0.648 c -14.96,47.144 -42.16,83.746 -81.6,109.82 -39.44,26.063 -85.914,39.1 -139.4,39.1 -45.337,0 -86.477,-10.316 -123.42,-30.94 -36.954,-20.633 -65.96,-49.417 -87.04,-86.36 -10.031,-17.584 -17.67,-36.273 -22.927,-56.06 -5.792,-21.797 -8.693,-44.929 -8.693,-69.4 0,-2.347 0.034,-4.678 0.087,-7 0.621,-27.061 4.858,-52.409 12.713,-76.045 4.88,-14.684 11.148,-28.711 18.82,-42.075 21.08,-36.72 50.086,-65.396 87.04,-86.019 36.943,-20.634 78.306,-30.941 124.1,-30.941 40.8,0 77.626,8.5 110.5,25.5 32.863,17 59.723,39.546 80.58,67.66 14.836,20.001 25.982,41.273 33.477,63.803 3.037,9.127 5.491,18.455 7.323,27.997 V -4 0 10 L 0,10 Z" style="fill-opacity: 1; fill-rule: nonzero; stroke: none; fill: rgb(80, 81, 120);" id="path282"/>
        </g>
        <g id="g284" transform="translate(2288.209,502.2734)">
          <path d="m 0,0 c -14.057,18.127 -30.833,31.727 -50.319,40.8 -19.497,9.063 -44.658,18.127 -75.481,27.2 -22.674,6.8 -40.236,12.804 -52.7,18.021 -12.474,5.206 -22.896,12.005 -31.279,20.399 -3.447,3.442 -6.172,7.255 -8.201,11.424 -2.071,4.255 -3.407,8.887 -4.005,13.899 -0.243,2.038 -0.374,4.134 -0.374,6.297 0,4.531 0.346,8.793 1.04,12.788 2.08,11.984 7.284,21.552 15.62,28.693 11.102,9.519 25.945,14.279 44.539,14.279 21.304,0 38.421,-5.333 51.341,-15.98 11.038,-9.105 17.672,-20.28 19.944,-33.519 0.386,-2.256 0.662,-4.564 0.795,-6.941 h 1.684 97.381 4.056 1.6 c -0.727,9.747 -2.18,18.997 -4.341,27.76 -7.288,29.545 -22.72,53.505 -46.32,71.86 -30.6,23.8 -70.379,35.701 -119.339,35.701 -32.641,0 -61.658,-5.558 -87.04,-16.66 -25.394,-11.115 -45.115,-27.094 -59.161,-47.941 -8.074,-11.98 -13.815,-25.162 -17.25,-39.533 -2.545,-10.648 -3.83,-21.946 -3.83,-33.906 0,-2.454 0.064,-4.851 0.157,-7.224 0.593,-15.161 3.083,-28.673 7.473,-40.536 3.301,-8.922 7.659,-16.926 13.11,-23.981 13.824,-17.914 30.367,-31.28 49.64,-40.12 19.264,-8.84 44.307,-17.797 75.14,-26.86 22.663,-6.354 40.46,-12.134 53.381,-17.34 12.92,-5.217 23.682,-12.356 32.3,-21.42 6.555,-6.911 10.612,-15.269 12.177,-25.065 0.49,-3.065 0.742,-6.267 0.742,-9.615 0,-2.411 -0.137,-4.751 -0.386,-7.033 -0.634,-5.815 -2.065,-11.217 -4.312,-16.195 -3.174,-7.032 -7.953,-13.231 -14.342,-18.592 -12.697,-10.657 -30.154,-15.979 -52.36,-15.979 -21.76,0 -38.877,5.663 -51.34,17 -6.751,6.13 -11.856,13.468 -15.349,21.993 -1.814,4.428 -3.195,9.173 -4.132,14.246 -0.592,3.206 -1.017,6.536 -1.259,10 h -102 c 0.053,-3.388 0.217,-6.718 0.473,-10 0.105,-1.344 0.237,-2.674 0.377,-4 1.164,-11.102 3.511,-21.596 7.072,-31.464 3.876,-10.736 9.167,-20.742 15.878,-30.016 15.407,-21.313 36.381,-37.633 62.9,-48.96 26.521,-11.336 56.323,-17 89.42,-17 34.903,0 65.047,6.46 90.441,19.38 25.382,12.92 44.646,30.26 57.799,52.02 4.894,8.102 8.874,16.455 11.947,25.058 4.455,12.476 6.979,25.485 7.602,39.021 0.102,2.202 0.171,4.412 0.171,6.642 0,12.128 -1.212,23.28 -3.594,33.489 C 14.081,-23.318 8.265,-10.671 0,0" style="fill-opacity: 1; fill-rule: nonzero; stroke: none; fill: rgb(80, 81, 120);" id="path286"/>
        </g>
        <g id="g288" transform="translate(2644.5244,631.4736)">
          <path d="m 0,0 c 0,-2.403 -0.099,-4.735 -0.294,-6.997 -0.606,-7.038 -2.17,-13.384 -4.664,-19.059 -3.055,-6.954 -7.513,-12.896 -13.402,-17.804 -12.24,-10.2 -29.697,-15.3 -52.36,-15.3 h -83.04 -4 v 105 4 10 h 87.04 c 22.663,0 40.12,-5.217 52.36,-15.64 C -9.153,36.352 -3.411,26.073 -1.13,13.358 -0.378,9.169 0,4.718 0,0 m 11.561,-197.88 c 0,-2.412 -0.1,-4.754 -0.288,-7.033 -0.609,-7.349 -2.205,-14.004 -4.777,-19.973 -3.228,-7.494 -7.994,-13.91 -14.316,-19.234 -12.92,-10.88 -30.94,-16.32 -54.06,-16.32 h -91.88 -4 v 113.84 4 10 h 93.84 c 23.12,0 41.481,-5.78 55.08,-17.34 10.213,-8.681 16.59,-19.854 19.134,-33.52 0.843,-4.533 1.267,-9.339 1.267,-14.42 m 70.719,63.24 c -11.501,14.521 -25.128,25.283 -40.862,32.334 -1.572,0.705 -3.165,1.376 -4.78,2.006 -1.729,0.675 -3.478,1.316 -5.255,1.905 -4.843,1.605 -9.86,2.904 -15.063,3.875 24.48,7.704 44.083,20.846 58.82,39.44 6.351,8.015 11.328,16.879 14.942,26.583 4.032,10.822 6.346,22.704 6.968,35.626 0.113,2.353 0.19,4.728 0.19,7.151 0,9.854 -1.066,19.266 -3.167,28.25 -2.924,12.503 -7.866,24.171 -14.853,34.991 -12.017,18.583 -29.697,33.085 -53.04,43.519 -23.354,10.423 -51.117,15.64 -83.3,15.64 h -195.84 v -10 -4 -460.64 h 4 200.68 c 32.183,0 60.063,5.44 83.64,16.32 23.567,10.88 41.586,25.947 54.06,45.22 4.611,7.127 8.365,14.676 11.271,22.642 4.193,11.493 6.598,23.865 7.238,37.106 0.115,2.385 0.191,4.79 0.191,7.232 0,9.886 -1.09,19.372 -3.222,28.474 -3.929,16.772 -11.454,32.221 -22.618,46.326" style="fill-opacity: 1; fill-rule: nonzero; stroke: none; fill: rgb(80, 81, 120);" id="path290"/>
        </g>
        <g id="g292" transform="translate(2796.6506,754.1533)">
          <path d="m 0,0 2.083,-4 151.784,-291.399 v -5.342 -8.658 -151.241 h 4 87.2 4 v 151.241 8.687 5.313 L 400.211,-4 l 2.075,4 2.075,4 5.187,10 H 303.468 L 202.147,-202.92 100.147,14 H -7.292 L -2.083,4 Z" style="fill-opacity: 1; fill-rule: nonzero; stroke: none; fill: rgb(80, 81, 120);" id="path294"/>
        </g>
      </g>
    </g>
  </g>
</svg>